<?xml version="1.0" encoding="UTF-8" standalone="no"?>
<!DOCTYPE svg PUBLIC "-//W3C//DTD SVG 1.1//EN" "http://www.w3.org/Graphics/SVG/1.1/DTD/svg11.dtd">
<svg width="100%" height="100%" viewBox="0 0 930 34" version="1.1" xmlns="http://www.w3.org/2000/svg" xmlns:xlink="http://www.w3.org/1999/xlink" xml:space="preserve" xmlns:serif="http://www.serif.com/" style="fill-rule:evenodd;clip-rule:evenodd;stroke-linejoin:round;stroke-miterlimit:2;">
    <g transform="matrix(1,0,0,1,-34.8922,-4405.84)">
        <g id="headerminititle">
            <path d="M964.327,4405.84L34.892,4405.84L68.772,4439.72L930.447,4439.72L964.327,4405.84Z" style="fill:rgb(74,74,74);"/>
            <g transform="matrix(1,0,0,1,-146.528,64.5234)">
                <g transform="matrix(20.8333,0,0,20.8333,259.419,4367.53)">
                    <path d="M0.625,-0.5L0.625,-0.625L0,-0.625L0,-0.25L0.5,-0.25L0.5,-0.125L0,-0.125L0,-0L0.625,-0L0.625,-0.375L0.125,-0.375L0.125,-0.5L0.625,-0.5Z" style="fill:white;fill-rule:nonzero;"/>
                </g>
                <g transform="matrix(20.8333,0,0,20.8333,275.044,4367.53)">
                    <path d="M0.625,-0.125L0.125,-0.125L0.125,-0.5L0.625,-0.5L0.625,-0.625L0,-0.625L0,-0L0.625,-0L0.625,-0.125Z" style="fill:white;fill-rule:nonzero;"/>
                </g>
                <g transform="matrix(20.8333,0,0,20.8333,290.669,4367.53)">
                    <path d="M0.5,-0.625L0.5,-0.375L0.125,-0.375L0.125,-0.625L0,-0.625L0,-0L0.125,-0L0.125,-0.25L0.5,-0.25L0.5,-0L0.625,-0L0.625,-0.625L0.5,-0.625Z" style="fill:white;fill-rule:nonzero;"/>
                </g>
                <g transform="matrix(20.8333,0,0,20.8333,306.294,4367.53)">
                    <path d="M0,-0.625L0,-0.5L0.25,-0.5L0.25,-0L0.375,-0L0.375,-0.5L0.625,-0.5L0.625,-0.625L0,-0.625Z" style="fill:white;fill-rule:nonzero;"/>
                </g>
                <g transform="matrix(20.8333,0,0,20.8333,321.919,4367.53)">
                    <path d="M0.625,-0.5L0.625,-0.625L0,-0.625L0,-0.25L0.5,-0.25L0.5,-0.125L0,-0.125L0,-0L0.625,-0L0.625,-0.375L0.125,-0.375L0.125,-0.5L0.625,-0.5Z" style="fill:white;fill-rule:nonzero;"/>
                </g>
                <g transform="matrix(20.8333,0,0,20.8333,337.544,4367.53)">
                    <path d="M0.625,-0.5L0.625,-0.625L0,-0.625L0,-0L0.625,-0L0.625,-0.125L0.125,-0.125L0.125,-0.25L0.625,-0.25L0.625,-0.375L0.125,-0.375L0.125,-0.5L0.625,-0.5Z" style="fill:white;fill-rule:nonzero;"/>
                </g>
                <g transform="matrix(20.8333,0,0,20.8333,353.169,4367.53)">
                    <path d="M0,-0.625L0,-0L0.125,-0L0.125,-0.25L0.375,-0.25L0.375,-0L0.625,-0L0.625,-0.125L0.5,-0.125L0.5,-0.25L0.625,-0.25L0.625,-0.625L0,-0.625ZM0.5,-0.375L0.125,-0.375L0.125,-0.5L0.5,-0.5L0.5,-0.375Z" style="fill:white;fill-rule:nonzero;"/>
                </g>
                <g transform="matrix(20.8333,0,0,20.8333,368.794,4367.53)">
                    <path d="M0.125,-0.625L0,-0.625L0,-0.25L0.125,-0.25L0.125,-0.625ZM0.5,-0.625L0.5,-0.25L0.625,-0.25L0.625,-0.625L0.5,-0.625ZM0.125,-0.25L0.125,-0.125L0.25,-0.125L0.25,-0.25L0.125,-0.25ZM0.375,-0.125L0.5,-0.125L0.5,-0.25L0.375,-0.25L0.375,-0.125ZM0.25,-0L0.375,-0L0.375,-0.125L0.25,-0.125L0.25,-0Z" style="fill:white;fill-rule:nonzero;"/>
                </g>
                <g transform="matrix(20.8333,0,0,20.8333,394.836,4367.53)">
                    <path d="M0,-0.625L0,-0L0.125,-0L0.125,-0.25L0.625,-0.25L0.625,-0.625L0,-0.625ZM0.5,-0.375L0.125,-0.375L0.125,-0.5L0.5,-0.5L0.5,-0.375Z" style="fill:white;fill-rule:nonzero;"/>
                </g>
                <g transform="matrix(20.8333,0,0,20.8333,410.461,4367.53)">
                    <path d="M0.5,-0.625L0.5,-0.375L0.125,-0.375L0.125,-0.625L0,-0.625L0,-0L0.125,-0L0.125,-0.25L0.5,-0.25L0.5,-0L0.625,-0L0.625,-0.625L0.5,-0.625Z" style="fill:white;fill-rule:nonzero;"/>
                </g>
                <g transform="matrix(20.8333,0,0,20.8333,426.086,4367.53)">
                    <path d="M0.5,-0L0.625,-0L0.625,-0.625L0,-0.625L0,-0L0.125,-0L0.125,-0.25L0.5,-0.25L0.5,-0ZM0.125,-0.375L0.125,-0.5L0.5,-0.5L0.5,-0.375L0.125,-0.375Z" style="fill:white;fill-rule:nonzero;"/>
                </g>
                <g transform="matrix(20.8333,0,0,20.8333,441.711,4367.53)">
                    <path d="M0.125,-0.5L0.125,-0.625L0,-0.625L0,-0L0.125,-0L0.125,-0.375L0.25,-0.375L0.25,-0.5L0.125,-0.5ZM0.5,-0.625L0.5,-0.25L0.375,-0.25L0.375,-0.125L0.5,-0.125L0.5,-0L0.625,-0L0.625,-0.625L0.5,-0.625ZM0.25,-0.375L0.25,-0.25L0.375,-0.25L0.375,-0.375L0.25,-0.375Z" style="fill:white;fill-rule:nonzero;"/>
                </g>
                <g transform="matrix(20.8333,0,0,20.8333,457.336,4367.53)">
                    <path d="M0,-0.625L0,-0.5L0.25,-0.5L0.25,-0L0.375,-0L0.375,-0.5L0.625,-0.5L0.625,-0.625L0,-0.625Z" style="fill:white;fill-rule:nonzero;"/>
                </g>
                <g transform="matrix(20.8333,0,0,20.8333,472.961,4367.53)">
                    <path d="M0.5,-0L0.625,-0L0.625,-0.625L0,-0.625L0,-0L0.125,-0L0.125,-0.25L0.5,-0.25L0.5,-0ZM0.125,-0.375L0.125,-0.5L0.5,-0.5L0.5,-0.375L0.125,-0.375Z" style="fill:white;fill-rule:nonzero;"/>
                </g>
                <g transform="matrix(20.8333,0,0,20.8333,488.586,4367.53)">
                    <path d="M0.625,-0.5L0.625,-0.625L0,-0.625L0,-0.25L0.5,-0.25L0.5,-0.125L0,-0.125L0,-0L0.625,-0L0.625,-0.375L0.125,-0.375L0.125,-0.5L0.625,-0.5Z" style="fill:white;fill-rule:nonzero;"/>
                </g>
                <g transform="matrix(20.8333,0,0,20.8333,504.211,4367.53)">
                    <path d="M0.125,-0.625L0,-0.625L0,-0.375L0.125,-0.375L0.125,-0.625ZM0.5,-0.625L0.5,-0.375L0.625,-0.375L0.625,-0.625L0.5,-0.625ZM0.125,-0.375L0.125,-0.25L0.25,-0.25L0.25,-0.375L0.125,-0.375ZM0.375,-0.25L0.5,-0.25L0.5,-0.375L0.375,-0.375L0.375,-0.25ZM0.25,-0L0.375,-0L0.375,-0.25L0.25,-0.25L0.25,-0Z" style="fill:white;fill-rule:nonzero;"/>
                </g>
                <g transform="matrix(20.8333,0,0,20.8333,530.252,4367.53)">
                    <path d="M0.625,-0.5L0.625,-0.625L0,-0.625L0,-0.25L0.5,-0.25L0.5,-0.125L0,-0.125L0,-0L0.625,-0L0.625,-0.375L0.125,-0.375L0.125,-0.5L0.625,-0.5Z" style="fill:white;fill-rule:nonzero;"/>
                </g>
                <g transform="matrix(20.8333,0,0,20.8333,545.877,4367.53)">
                    <path d="M0,-0.625L0,-0.5L0.25,-0.5L0.25,-0L0.375,-0L0.375,-0.5L0.625,-0.5L0.625,-0.625L0,-0.625Z" style="fill:white;fill-rule:nonzero;"/>
                </g>
                <g transform="matrix(20.8333,0,0,20.8333,561.502,4367.53)">
                    <path d="M0.5,-0L0.625,-0L0.625,-0.625L0,-0.625L0,-0L0.125,-0L0.125,-0.25L0.5,-0.25L0.5,-0ZM0.125,-0.375L0.125,-0.5L0.5,-0.5L0.5,-0.375L0.125,-0.375Z" style="fill:white;fill-rule:nonzero;"/>
                </g>
                <g transform="matrix(20.8333,0,0,20.8333,577.127,4367.53)">
                    <path d="M0,-0.625L0,-0L0.125,-0L0.125,-0.25L0.375,-0.25L0.375,-0L0.625,-0L0.625,-0.125L0.5,-0.125L0.5,-0.25L0.625,-0.25L0.625,-0.625L0,-0.625ZM0.5,-0.375L0.125,-0.375L0.125,-0.5L0.5,-0.5L0.5,-0.375Z" style="fill:white;fill-rule:nonzero;"/>
                </g>
                <g transform="matrix(20.8333,0,0,20.8333,603.169,4367.53)">
                    <path d="M0,-0.625L0,-0L0.625,-0L0.625,-0.625L0,-0.625ZM0.5,-0.125L0.125,-0.125L0.125,-0.5L0.5,-0.5L0.5,-0.125Z" style="fill:white;fill-rule:nonzero;"/>
                </g>
                <g transform="matrix(20.8333,0,0,20.8333,618.794,4367.53)">
                    <path d="M0.125,-0.5L0.125,-0.625L0,-0.625L0,-0L0.125,-0L0.125,-0.375L0.25,-0.375L0.25,-0.5L0.125,-0.5ZM0.5,-0.625L0.5,-0.25L0.375,-0.25L0.375,-0.125L0.5,-0.125L0.5,-0L0.625,-0L0.625,-0.625L0.5,-0.625ZM0.25,-0.375L0.25,-0.25L0.375,-0.25L0.375,-0.375L0.25,-0.375Z" style="fill:white;fill-rule:nonzero;"/>
                </g>
                <g transform="matrix(20.8333,0,0,20.8333,634.419,4367.53)">
                    <path d="M0.125,-0.125L0.125,-0.625L0,-0.625L0,-0L0.625,-0L0.625,-0.125L0.125,-0.125Z" style="fill:white;fill-rule:nonzero;"/>
                </g>
                <g transform="matrix(20.8333,0,0,20.8333,650.044,4367.53)">
                    <path d="M0.25,-0.5L0.375,-0.5L0.375,-0.625L0,-0.625L0,-0.5L0.125,-0.5L0.125,-0.125L0,-0.125L0,-0L0.375,-0L0.375,-0.125L0.25,-0.125L0.25,-0.5Z" style="fill:white;fill-rule:nonzero;"/>
                </g>
                <g transform="matrix(20.8333,0,0,20.8333,660.461,4367.53)">
                    <path d="M0.125,-0.5L0.125,-0.625L0,-0.625L0,-0L0.125,-0L0.125,-0.375L0.25,-0.375L0.25,-0.5L0.125,-0.5ZM0.5,-0.625L0.5,-0.25L0.375,-0.25L0.375,-0.125L0.5,-0.125L0.5,-0L0.625,-0L0.625,-0.625L0.5,-0.625ZM0.25,-0.375L0.25,-0.25L0.375,-0.25L0.375,-0.375L0.25,-0.375Z" style="fill:white;fill-rule:nonzero;"/>
                </g>
                <g transform="matrix(20.8333,0,0,20.8333,676.086,4367.53)">
                    <path d="M0.625,-0.5L0.625,-0.625L0,-0.625L0,-0L0.625,-0L0.625,-0.125L0.125,-0.125L0.125,-0.25L0.625,-0.25L0.625,-0.375L0.125,-0.375L0.125,-0.5L0.625,-0.5Z" style="fill:white;fill-rule:nonzero;"/>
                </g>
                <g transform="matrix(20.8333,0,0,20.8333,702.127,4367.53)">
                    <path d="M0.5,-0.126L0.5,-0.25L0.125,-0.25L0.125,-0.126L0.5,-0.126ZM0.5,-0.499L0.125,-0.499L0.125,-0.375L0.5,-0.375L0.5,-0.499ZM0.625,-0.5L0.625,-0.125L0.5,-0.125L0.5,-0L0,-0L0,-0.625L0.5,-0.625L0.5,-0.5L0.625,-0.5Z" style="fill:white;fill-rule:nonzero;"/>
                </g>
                <g transform="matrix(20.8333,0,0,20.8333,717.752,4367.53)">
                    <path d="M0.125,-0.125L0.125,-0.625L0,-0.625L0,-0L0.625,-0L0.625,-0.125L0.125,-0.125Z" style="fill:white;fill-rule:nonzero;"/>
                </g>
                <g transform="matrix(20.8333,0,0,20.8333,733.377,4367.53)">
                    <path d="M0.5,-0.625L0.5,-0.125L0.125,-0.125L0.125,-0.625L0,-0.625L0,-0L0.625,-0L0.625,-0.625L0.5,-0.625Z" style="fill:white;fill-rule:nonzero;"/>
                </g>
                <g transform="matrix(20.8333,0,0,20.8333,749.002,4367.53)">
                    <path d="M0.625,-0.5L0.625,-0.625L0,-0.625L0,-0L0.625,-0L0.625,-0.125L0.125,-0.125L0.125,-0.25L0.625,-0.25L0.625,-0.375L0.125,-0.375L0.125,-0.5L0.625,-0.5Z" style="fill:white;fill-rule:nonzero;"/>
                </g>
                <g transform="matrix(20.8333,0,0,20.8333,764.627,4367.53)">
                    <path d="M0.5,-0.126L0.5,-0.25L0.125,-0.25L0.125,-0.126L0.5,-0.126ZM0.5,-0.499L0.125,-0.499L0.125,-0.375L0.5,-0.375L0.5,-0.499ZM0.625,-0.5L0.625,-0.125L0.5,-0.125L0.5,-0L0,-0L0,-0.625L0.5,-0.625L0.5,-0.5L0.625,-0.5Z" style="fill:white;fill-rule:nonzero;"/>
                </g>
                <g transform="matrix(20.8333,0,0,20.8333,780.252,4367.53)">
                    <path d="M0.5,-0.625L0.5,-0.125L0.125,-0.125L0.125,-0.625L0,-0.625L0,-0L0.625,-0L0.625,-0.625L0.5,-0.625Z" style="fill:white;fill-rule:nonzero;"/>
                </g>
                <g transform="matrix(20.8333,0,0,20.8333,795.877,4367.53)">
                    <path d="M0,-0.625L0,-0L0.125,-0L0.125,-0.25L0.375,-0.25L0.375,-0L0.625,-0L0.625,-0.125L0.5,-0.125L0.5,-0.25L0.625,-0.25L0.625,-0.625L0,-0.625ZM0.5,-0.375L0.125,-0.375L0.125,-0.5L0.5,-0.5L0.5,-0.375Z" style="fill:white;fill-rule:nonzero;"/>
                </g>
                <g transform="matrix(20.8333,0,0,20.8333,811.502,4367.53)">
                    <path d="M0.625,-0.5L0.625,-0.625L0,-0.625L0,-0.25L0.5,-0.25L0.5,-0.125L0,-0.125L0,-0L0.625,-0L0.625,-0.375L0.125,-0.375L0.125,-0.5L0.625,-0.5Z" style="fill:white;fill-rule:nonzero;"/>
                </g>
                <g transform="matrix(20.8333,0,0,20.8333,827.127,4367.53)">
                    <path d="M0,-0.625L0,-0.5L0.25,-0.5L0.25,-0L0.375,-0L0.375,-0.5L0.625,-0.5L0.625,-0.625L0,-0.625Z" style="fill:white;fill-rule:nonzero;"/>
                </g>
                <g transform="matrix(20.8333,0,0,20.8333,853.169,4367.53)">
                    <path d="M0,-0.625L0,-0L0.625,-0L0.625,-0.625L0,-0.625ZM0.5,-0.125L0.125,-0.125L0.125,-0.5L0.5,-0.5L0.5,-0.125Z" style="fill:rgb(232,124,72);fill-rule:nonzero;"/>
                </g>
                <g transform="matrix(20.8333,0,0,20.8333,868.794,4367.53)">
                    <path d="M0.625,-0.5L0.625,-0.625L0,-0.625L0,-0L0.125,-0L0.125,-0.25L0.625,-0.25L0.625,-0.375L0.125,-0.375L0.125,-0.5L0.625,-0.5Z" style="fill:rgb(232,124,72);fill-rule:nonzero;"/>
                </g>
                <g transform="matrix(20.8333,0,0,20.8333,884.419,4367.53)">
                    <path d="M0.625,-0.5L0.625,-0.625L0,-0.625L0,-0L0.125,-0L0.125,-0.25L0.625,-0.25L0.625,-0.375L0.125,-0.375L0.125,-0.5L0.625,-0.5Z" style="fill:rgb(232,124,72);fill-rule:nonzero;"/>
                </g>
                <g transform="matrix(20.8333,0,0,20.8333,900.044,4367.53)">
                    <path d="M0.25,-0.5L0.375,-0.5L0.375,-0.625L0,-0.625L0,-0.5L0.125,-0.5L0.125,-0.125L0,-0.125L0,-0L0.375,-0L0.375,-0.125L0.25,-0.125L0.25,-0.5Z" style="fill:rgb(232,124,72);fill-rule:nonzero;"/>
                </g>
                <g transform="matrix(20.8333,0,0,20.8333,910.461,4367.53)">
                    <path d="M0.625,-0.125L0.125,-0.125L0.125,-0.5L0.625,-0.5L0.625,-0.625L0,-0.625L0,-0L0.625,-0L0.625,-0.125Z" style="fill:rgb(232,124,72);fill-rule:nonzero;"/>
                </g>
                <g transform="matrix(20.8333,0,0,20.8333,926.086,4367.53)">
                    <path d="M0.25,-0.5L0.375,-0.5L0.375,-0.625L0,-0.625L0,-0.5L0.125,-0.5L0.125,-0.125L0,-0.125L0,-0L0.375,-0L0.375,-0.125L0.25,-0.125L0.25,-0.5Z" style="fill:rgb(232,124,72);fill-rule:nonzero;"/>
                </g>
                <g transform="matrix(20.8333,0,0,20.8333,936.502,4367.53)">
                    <path d="M0.5,-0L0.625,-0L0.625,-0.625L0,-0.625L0,-0L0.125,-0L0.125,-0.25L0.5,-0.25L0.5,-0ZM0.125,-0.375L0.125,-0.5L0.5,-0.5L0.5,-0.375L0.125,-0.375Z" style="fill:rgb(232,124,72);fill-rule:nonzero;"/>
                </g>
                <g transform="matrix(20.8333,0,0,20.8333,952.127,4367.53)">
                    <path d="M0.125,-0.125L0.125,-0.625L0,-0.625L0,-0L0.625,-0L0.625,-0.125L0.125,-0.125Z" style="fill:rgb(232,124,72);fill-rule:nonzero;"/>
                </g>
                <g transform="matrix(20.8333,0,0,20.8333,978.169,4367.53)">
                    <path d="M0.625,-0.5L0.625,-0.625L0,-0.625L0,-0.25L0.5,-0.25L0.5,-0.125L0,-0.125L0,-0L0.625,-0L0.625,-0.375L0.125,-0.375L0.125,-0.5L0.625,-0.5Z" style="fill:rgb(232,124,72);fill-rule:nonzero;"/>
                </g>
                <g transform="matrix(20.8333,0,0,20.8333,993.794,4367.53)">
                    <path d="M0.25,-0.5L0.375,-0.5L0.375,-0.625L0,-0.625L0,-0.5L0.125,-0.5L0.125,-0.125L0,-0.125L0,-0L0.375,-0L0.375,-0.125L0.25,-0.125L0.25,-0.5Z" style="fill:rgb(232,124,72);fill-rule:nonzero;"/>
                </g>
                <g transform="matrix(20.8333,0,0,20.8333,1004.21,4367.53)">
                    <path d="M0,-0.625L0,-0.5L0.25,-0.5L0.25,-0L0.375,-0L0.375,-0.5L0.625,-0.5L0.625,-0.625L0,-0.625Z" style="fill:rgb(232,124,72);fill-rule:nonzero;"/>
                </g>
                <g transform="matrix(20.8333,0,0,20.8333,1019.84,4367.53)">
                    <path d="M0.625,-0.5L0.625,-0.625L0,-0.625L0,-0L0.625,-0L0.625,-0.125L0.125,-0.125L0.125,-0.25L0.625,-0.25L0.625,-0.375L0.125,-0.375L0.125,-0.5L0.625,-0.5Z" style="fill:rgb(232,124,72);fill-rule:nonzero;"/>
                </g>
            </g>
        </g>
    </g>
</svg>
