<?xml version="1.0" encoding="UTF-8" standalone="no"?>
<!DOCTYPE svg PUBLIC "-//W3C//DTD SVG 1.1//EN" "http://www.w3.org/Graphics/SVG/1.1/DTD/svg11.dtd">
<svg width="100%" height="100%" viewBox="0 0 135 66" version="1.1" xmlns="http://www.w3.org/2000/svg" xmlns:xlink="http://www.w3.org/1999/xlink" xml:space="preserve" xmlns:serif="http://www.serif.com/" style="fill-rule:evenodd;clip-rule:evenodd;stroke-linejoin:round;stroke-miterlimit:2;">
    <g transform="matrix(1,0,0,1,-413.915,-5023.75)">
        <g transform="matrix(0.138917,0,0,0.138917,375.135,4485.93)">
            <g transform="matrix(239.952,0,0,239.952,273.533,4071.68)">
                <path d="M0.044,0.126L0.023,0.103L0.023,-0.81L0.044,-0.833L0.154,-0.833L0.166,-0.827L0.178,-0.804L0.178,0.093L0.166,0.116C0.148,0.122 0.129,0.125 0.107,0.125C0.085,0.126 0.064,0.126 0.044,0.126ZM0.658,-0.38L0.644,-0.392L0.644,-0.706L0.24,-0.706C0.229,-0.718 0.222,-0.732 0.221,-0.748C0.22,-0.764 0.22,-0.779 0.22,-0.795L0.237,-0.831L0.24,-0.834L0.76,-0.834L0.789,-0.813L0.789,-0.395L0.771,-0.38L0.658,-0.38ZM0.41,-0.397C0.4,-0.401 0.391,-0.405 0.383,-0.409C0.375,-0.413 0.367,-0.419 0.359,-0.428C0.352,-0.438 0.346,-0.449 0.342,-0.461C0.338,-0.474 0.337,-0.488 0.339,-0.502C0.341,-0.512 0.344,-0.521 0.349,-0.53C0.354,-0.539 0.36,-0.547 0.368,-0.556C0.379,-0.563 0.39,-0.569 0.403,-0.573C0.416,-0.577 0.429,-0.578 0.443,-0.576C0.453,-0.574 0.462,-0.571 0.471,-0.566C0.48,-0.561 0.488,-0.555 0.496,-0.547C0.505,-0.536 0.511,-0.525 0.515,-0.512C0.519,-0.5 0.52,-0.486 0.518,-0.472C0.516,-0.462 0.512,-0.453 0.507,-0.444C0.502,-0.435 0.496,-0.426 0.487,-0.418C0.478,-0.41 0.466,-0.404 0.453,-0.4C0.44,-0.396 0.426,-0.396 0.41,-0.397Z" style="fill:rgb(232,124,72);fill-opacity:0.6;fill-rule:nonzero;"/>
            </g>
            <g transform="matrix(239.952,0,0,239.952,469.198,4071.68)">
                <path d="M0.045,0.125L0.024,0.102L0.024,-0.809L0.045,-0.832L0.158,-0.832L0.176,-0.814L0.179,-0.806L0.179,0.099L0.167,0.119C0.149,0.125 0.13,0.127 0.108,0.126C0.086,0.125 0.065,0.125 0.045,0.125ZM0.356,0.121L0.336,0.098L0.336,-0.642C0.338,-0.647 0.341,-0.652 0.345,-0.656C0.349,-0.66 0.354,-0.663 0.359,-0.665L0.47,-0.665L0.49,-0.645L0.493,-0.636L0.493,-0.014L0.774,-0.014L0.792,0.008L0.791,0.086L0.779,0.115L0.771,0.121L0.356,0.121Z" style="fill:rgb(232,124,72);fill-opacity:0.6;fill-rule:nonzero;"/>
            </g>
            <g transform="matrix(239.952,0,0,239.952,664.862,4071.68)">
                <path d="M0.05,0.121L0.029,0.098L0.026,0.08L0.026,-0.803L0.05,-0.829L0.059,-0.832L0.757,-0.832L0.777,-0.82C0.785,-0.811 0.789,-0.798 0.789,-0.783L0.789,-0.739L0.774,-0.712L0.76,-0.703L0.176,-0.703L0.176,0.095L0.155,0.121L0.05,0.121ZM0.652,0.123L0.638,0.108L0.638,-0.287L0.236,-0.287L0.216,-0.312L0.217,-0.38L0.229,-0.409L0.243,-0.418L0.771,-0.418L0.788,-0.412L0.791,-0.4L0.791,0.103L0.782,0.117L0.773,0.123L0.652,0.123Z" style="fill:rgb(232,124,72);fill-opacity:0.6;fill-rule:nonzero;"/>
            </g>
            <g transform="matrix(239.952,0,0,239.952,860.526,4071.68)">
                <path d="M0.051,0.121L0.024,0.098L0.025,0.021L0.04,-0.003L0.055,-0.012L0.644,-0.012L0.644,-0.797L0.658,-0.826C0.676,-0.832 0.693,-0.834 0.71,-0.833C0.727,-0.833 0.745,-0.832 0.766,-0.832L0.786,-0.812L0.789,-0.803L0.789,0.098L0.763,0.121L0.051,0.121ZM0.05,-0.303C0.044,-0.305 0.039,-0.308 0.035,-0.312C0.031,-0.315 0.028,-0.32 0.026,-0.326L0.023,-0.403L0.041,-0.431L0.044,-0.434L0.559,-0.434L0.58,-0.406L0.58,-0.332L0.565,-0.309L0.553,-0.303L0.05,-0.303ZM0.104,-0.643C0.092,-0.645 0.081,-0.648 0.071,-0.654C0.061,-0.66 0.052,-0.668 0.044,-0.679C0.038,-0.688 0.034,-0.698 0.031,-0.708C0.028,-0.718 0.026,-0.729 0.026,-0.742C0.028,-0.754 0.032,-0.765 0.037,-0.774C0.042,-0.784 0.048,-0.793 0.056,-0.802C0.067,-0.812 0.08,-0.818 0.093,-0.821C0.106,-0.824 0.12,-0.824 0.137,-0.822C0.145,-0.82 0.153,-0.817 0.161,-0.813C0.169,-0.81 0.176,-0.805 0.182,-0.799C0.193,-0.786 0.201,-0.773 0.204,-0.758C0.207,-0.744 0.208,-0.728 0.206,-0.711C0.204,-0.703 0.201,-0.695 0.195,-0.686C0.19,-0.677 0.184,-0.67 0.176,-0.663C0.166,-0.655 0.155,-0.649 0.143,-0.646C0.131,-0.642 0.118,-0.641 0.104,-0.643Z" style="fill:rgb(232,124,72);fill-opacity:0.6;fill-rule:nonzero;"/>
            </g>
            <g transform="matrix(239.952,0,0,239.952,273.533,4311.63)">
                <path d="M0.043,0.125L0.025,0.104L0.025,-0.814L0.052,-0.832L0.758,-0.832L0.781,-0.817C0.787,-0.806 0.79,-0.792 0.79,-0.777L0.79,-0.733L0.764,-0.703L0.176,-0.703L0.176,0.087L0.161,0.119C0.144,0.125 0.125,0.127 0.104,0.126C0.083,0.125 0.063,0.125 0.043,0.125ZM0.419,0.111C0.409,0.109 0.399,0.106 0.39,0.101C0.38,0.096 0.371,0.089 0.362,0.079C0.354,0.069 0.349,0.057 0.346,0.043C0.343,0.029 0.343,0.015 0.345,0.001C0.347,-0.009 0.351,-0.018 0.356,-0.025C0.362,-0.033 0.369,-0.041 0.378,-0.049C0.388,-0.057 0.399,-0.063 0.412,-0.066C0.424,-0.069 0.438,-0.069 0.452,-0.067C0.462,-0.065 0.471,-0.062 0.479,-0.057C0.486,-0.051 0.494,-0.045 0.503,-0.037C0.511,-0.027 0.516,-0.016 0.519,-0.004C0.522,0.008 0.523,0.021 0.523,0.034C0.521,0.046 0.518,0.057 0.512,0.067C0.506,0.077 0.498,0.086 0.487,0.094C0.478,0.1 0.467,0.104 0.457,0.108C0.446,0.112 0.433,0.113 0.419,0.111ZM0.666,0.125L0.643,0.113L0.64,0.11L0.64,-0.284L0.246,-0.284L0.229,-0.3C0.225,-0.312 0.223,-0.325 0.223,-0.34L0.223,-0.383L0.234,-0.406L0.25,-0.415L0.77,-0.415L0.787,-0.409L0.79,-0.406L0.79,0.11C0.772,0.122 0.752,0.127 0.729,0.125C0.707,0.123 0.686,0.123 0.666,0.125Z" style="fill:rgb(232,124,72);fill-opacity:0.6;fill-rule:nonzero;"/>
            </g>
            <g transform="matrix(239.952,0,0,239.952,469.198,4311.63)">
                <path d="M0.039,0.122L0.024,0.11L0.024,-0.815L0.042,-0.833L0.155,-0.833L0.173,-0.815L0.176,-0.807L0.176,-0L0.751,-0L0.78,0.019C0.786,0.028 0.789,0.04 0.789,0.054L0.789,0.093L0.771,0.119L0.769,0.122L0.039,0.122ZM0.684,-0.641C0.673,-0.643 0.663,-0.646 0.653,-0.649C0.644,-0.653 0.635,-0.658 0.627,-0.664C0.617,-0.676 0.61,-0.689 0.604,-0.703C0.599,-0.717 0.598,-0.732 0.6,-0.748C0.602,-0.76 0.606,-0.77 0.612,-0.779C0.618,-0.788 0.626,-0.796 0.636,-0.805C0.646,-0.813 0.657,-0.817 0.67,-0.818C0.683,-0.819 0.696,-0.819 0.71,-0.819C0.72,-0.817 0.729,-0.813 0.737,-0.807C0.745,-0.801 0.753,-0.794 0.761,-0.786C0.769,-0.776 0.774,-0.765 0.777,-0.753C0.78,-0.741 0.78,-0.729 0.778,-0.715C0.776,-0.705 0.772,-0.695 0.767,-0.685C0.761,-0.675 0.753,-0.666 0.743,-0.658C0.735,-0.652 0.725,-0.648 0.714,-0.645C0.704,-0.642 0.693,-0.641 0.684,-0.641Z" style="fill:rgb(232,124,72);fill-opacity:0.6;fill-rule:nonzero;"/>
            </g>
            <g transform="matrix(239.952,0,0,239.952,664.862,4311.63)">
                <path d="M0.352,0.126L0.331,0.105L0.328,0.094L0.328,-0.797L0.343,-0.823C0.36,-0.829 0.38,-0.832 0.4,-0.833C0.421,-0.833 0.442,-0.833 0.462,-0.833L0.482,-0.81L0.485,-0.801L0.485,0.09L0.471,0.116C0.453,0.122 0.434,0.125 0.413,0.125C0.392,0.126 0.372,0.126 0.352,0.126ZM0.131,-0.27C0.12,-0.271 0.11,-0.275 0.101,-0.28C0.091,-0.285 0.082,-0.291 0.074,-0.3C0.066,-0.31 0.06,-0.321 0.056,-0.333C0.052,-0.346 0.051,-0.361 0.053,-0.377C0.055,-0.387 0.058,-0.396 0.063,-0.405C0.069,-0.414 0.076,-0.422 0.086,-0.431C0.096,-0.438 0.107,-0.444 0.12,-0.447C0.133,-0.45 0.146,-0.45 0.16,-0.448C0.17,-0.446 0.179,-0.443 0.187,-0.438C0.195,-0.433 0.203,-0.426 0.211,-0.418C0.219,-0.408 0.224,-0.397 0.227,-0.386C0.23,-0.374 0.231,-0.361 0.231,-0.347C0.229,-0.335 0.226,-0.324 0.22,-0.314C0.214,-0.305 0.206,-0.296 0.196,-0.287C0.186,-0.281 0.175,-0.277 0.165,-0.274C0.154,-0.271 0.143,-0.27 0.131,-0.27ZM0.654,-0.27C0.645,-0.271 0.636,-0.274 0.627,-0.278C0.619,-0.282 0.611,-0.287 0.604,-0.293C0.594,-0.305 0.586,-0.318 0.582,-0.331C0.577,-0.343 0.575,-0.358 0.577,-0.374C0.579,-0.384 0.583,-0.394 0.587,-0.403C0.592,-0.413 0.6,-0.422 0.609,-0.431C0.62,-0.438 0.632,-0.444 0.646,-0.447C0.659,-0.45 0.673,-0.45 0.688,-0.448C0.697,-0.444 0.706,-0.44 0.714,-0.435C0.722,-0.43 0.729,-0.424 0.737,-0.415C0.746,-0.405 0.751,-0.395 0.754,-0.383C0.757,-0.371 0.756,-0.35 0.75,-0.32L0.729,-0.293C0.719,-0.285 0.707,-0.279 0.694,-0.275C0.681,-0.271 0.668,-0.27 0.654,-0.27Z" style="fill:rgb(232,124,72);fill-opacity:0.6;fill-rule:nonzero;"/>
            </g>
            <g transform="matrix(239.952,0,0,239.952,860.526,4311.63)">
                <path d="M0.044,0.125L0.026,0.107L0.026,-0.814L0.053,-0.832L0.756,-0.832L0.779,-0.817C0.787,-0.806 0.791,-0.792 0.79,-0.775C0.789,-0.759 0.788,-0.744 0.788,-0.73C0.784,-0.725 0.78,-0.72 0.776,-0.715C0.772,-0.711 0.768,-0.707 0.762,-0.703L0.178,-0.703L0.178,0.099L0.169,0.116C0.151,0.124 0.132,0.127 0.11,0.125C0.088,0.123 0.066,0.123 0.044,0.125ZM0.256,0.122L0.231,0.096L0.231,0.015L0.24,-0.004L0.253,-0.013L0.638,-0.013L0.638,-0.626L0.649,-0.646C0.67,-0.653 0.69,-0.656 0.711,-0.656L0.774,-0.656L0.792,-0.639L0.792,0.107L0.771,0.122L0.256,0.122ZM0.396,-0.466C0.386,-0.47 0.377,-0.475 0.369,-0.48C0.361,-0.485 0.354,-0.491 0.348,-0.499C0.34,-0.509 0.334,-0.52 0.332,-0.533C0.329,-0.546 0.328,-0.56 0.33,-0.573L0.354,-0.618C0.363,-0.626 0.374,-0.632 0.386,-0.637C0.398,-0.642 0.411,-0.645 0.425,-0.645C0.437,-0.643 0.449,-0.639 0.461,-0.634C0.473,-0.629 0.482,-0.621 0.49,-0.609C0.497,-0.599 0.502,-0.588 0.506,-0.578C0.51,-0.567 0.511,-0.555 0.509,-0.541C0.507,-0.531 0.503,-0.521 0.498,-0.511C0.493,-0.501 0.485,-0.492 0.476,-0.484C0.466,-0.474 0.454,-0.468 0.44,-0.467C0.426,-0.466 0.411,-0.466 0.396,-0.466Z" style="fill:rgb(232,124,72);fill-opacity:0.6;fill-rule:nonzero;"/>
            </g>
            <g transform="matrix(239.952,0,0,239.952,1056.19,4311.63)">
                <path d="M0.05,0.121L0.029,0.109L0.026,0.106L0.026,-0.323L0.044,-0.338L0.158,-0.338L0.176,-0.323L0.176,-0.012L0.764,-0.012L0.79,0.012L0.789,0.089L0.777,0.109L0.757,0.121L0.05,0.121ZM0.66,-0.284C0.652,-0.286 0.645,-0.289 0.637,-0.293C0.629,-0.298 0.622,-0.303 0.615,-0.309C0.605,-0.32 0.599,-0.333 0.595,-0.347C0.591,-0.361 0.59,-0.376 0.592,-0.392L0.618,-0.439C0.629,-0.447 0.64,-0.453 0.651,-0.457C0.663,-0.461 0.676,-0.463 0.69,-0.463C0.702,-0.461 0.713,-0.457 0.724,-0.451C0.735,-0.445 0.744,-0.438 0.753,-0.428C0.759,-0.417 0.763,-0.407 0.766,-0.396C0.769,-0.385 0.771,-0.374 0.771,-0.362C0.769,-0.35 0.765,-0.339 0.76,-0.329C0.755,-0.319 0.748,-0.311 0.737,-0.303C0.728,-0.294 0.716,-0.289 0.702,-0.286C0.688,-0.283 0.674,-0.282 0.66,-0.284ZM0.044,-0.38L0.026,-0.395L0.026,-0.82L0.05,-0.835L0.757,-0.835L0.777,-0.823C0.785,-0.813 0.789,-0.8 0.789,-0.784L0.789,-0.739L0.774,-0.715L0.76,-0.706L0.176,-0.706L0.176,-0.395L0.158,-0.38L0.044,-0.38Z" style="fill:rgb(232,124,72);fill-opacity:0.6;fill-rule:nonzero;"/>
            </g>
        </g>
    </g>
</svg>
