<?xml version="1.0" encoding="UTF-8" standalone="no"?>
<!DOCTYPE svg PUBLIC "-//W3C//DTD SVG 1.1//EN" "http://www.w3.org/Graphics/SVG/1.1/DTD/svg11.dtd">
<svg width="100%" height="100%" viewBox="0 0 189 66" version="1.1" xmlns="http://www.w3.org/2000/svg" xmlns:xlink="http://www.w3.org/1999/xlink" xml:space="preserve" xmlns:serif="http://www.serif.com/" style="fill-rule:evenodd;clip-rule:evenodd;stroke-linejoin:round;stroke-miterlimit:2;">
    <g transform="matrix(1,0,0,1,-1174.21,-5023.74)">
        <g transform="matrix(0.138917,0,0,0.138917,1135.42,4485.94)">
            <g transform="matrix(239.952,0,0,239.952,273.533,4071.68)">
                <path d="M0.661,0.127L0.646,0.118L0.641,0.109L0.641,-0.207L0.052,-0.207L0.031,-0.219C0.025,-0.233 0.023,-0.248 0.024,-0.264C0.025,-0.279 0.025,-0.295 0.025,-0.312L0.049,-0.332L0.772,-0.332L0.79,-0.317L0.79,0.108C0.772,0.12 0.753,0.126 0.73,0.125C0.708,0.124 0.685,0.125 0.661,0.127ZM0.134,0.105C0.121,0.104 0.11,0.1 0.101,0.095C0.091,0.09 0.081,0.084 0.071,0.075C0.061,0.063 0.054,0.051 0.051,0.039C0.048,0.026 0.048,0.011 0.05,-0.005L0.077,-0.053C0.089,-0.063 0.102,-0.069 0.116,-0.072C0.13,-0.075 0.145,-0.075 0.16,-0.073C0.168,-0.071 0.176,-0.068 0.186,-0.063C0.195,-0.058 0.202,-0.051 0.208,-0.043C0.216,-0.033 0.221,-0.023 0.224,-0.012C0.227,-0.001 0.229,0.01 0.229,0.022C0.227,0.034 0.223,0.045 0.218,0.056C0.213,0.067 0.206,0.076 0.196,0.085C0.188,0.093 0.178,0.098 0.167,0.101C0.157,0.104 0.146,0.105 0.134,0.105ZM0.037,-0.386L0.025,-0.392L0.025,-0.824L0.043,-0.833L0.758,-0.833L0.778,-0.821C0.786,-0.812 0.79,-0.799 0.79,-0.782L0.79,-0.737L0.772,-0.71L0.761,-0.704L0.177,-0.704L0.177,-0.397L0.162,-0.386L0.037,-0.386ZM0.663,-0.425C0.653,-0.429 0.645,-0.433 0.637,-0.437C0.629,-0.44 0.621,-0.446 0.612,-0.454C0.604,-0.464 0.599,-0.475 0.595,-0.488C0.591,-0.501 0.59,-0.515 0.592,-0.528C0.594,-0.538 0.597,-0.548 0.602,-0.557C0.607,-0.566 0.613,-0.574 0.621,-0.582C0.632,-0.59 0.643,-0.596 0.656,-0.6C0.668,-0.604 0.682,-0.604 0.696,-0.603C0.706,-0.601 0.715,-0.597 0.724,-0.592C0.733,-0.587 0.742,-0.581 0.75,-0.573C0.758,-0.563 0.764,-0.552 0.768,-0.539C0.771,-0.526 0.772,-0.513 0.771,-0.499C0.769,-0.489 0.765,-0.48 0.76,-0.471C0.755,-0.462 0.749,-0.453 0.74,-0.445C0.73,-0.438 0.719,-0.432 0.707,-0.428C0.694,-0.424 0.679,-0.423 0.663,-0.425Z" style="fill:rgb(232,124,72);fill-opacity:0.6;fill-rule:nonzero;"/>
            </g>
            <g transform="matrix(239.952,0,0,239.952,469.198,4071.68)">
                <path d="M0.039,0.122L0.024,0.11L0.024,-0.815L0.042,-0.833L0.155,-0.833L0.173,-0.815L0.176,-0.807L0.176,-0L0.751,-0L0.78,0.019C0.786,0.028 0.789,0.04 0.789,0.054L0.789,0.093L0.771,0.119L0.769,0.122L0.039,0.122ZM0.684,-0.641C0.673,-0.643 0.663,-0.646 0.653,-0.649C0.644,-0.653 0.635,-0.658 0.627,-0.664C0.617,-0.676 0.61,-0.689 0.604,-0.703C0.599,-0.717 0.598,-0.732 0.6,-0.748C0.602,-0.76 0.606,-0.77 0.612,-0.779C0.618,-0.788 0.626,-0.796 0.636,-0.805C0.646,-0.813 0.657,-0.817 0.67,-0.818C0.683,-0.819 0.696,-0.819 0.71,-0.819C0.72,-0.817 0.729,-0.813 0.737,-0.807C0.745,-0.801 0.753,-0.794 0.761,-0.786C0.769,-0.776 0.774,-0.765 0.777,-0.753C0.78,-0.741 0.78,-0.729 0.778,-0.715C0.776,-0.705 0.772,-0.695 0.767,-0.685C0.761,-0.675 0.753,-0.666 0.743,-0.658C0.735,-0.652 0.725,-0.648 0.714,-0.645C0.704,-0.642 0.693,-0.641 0.684,-0.641Z" style="fill:rgb(232,124,72);fill-opacity:0.6;fill-rule:nonzero;"/>
            </g>
            <g transform="matrix(239.952,0,0,239.952,664.862,4071.68)">
                <path d="M0.044,0.126L0.023,0.103L0.023,-0.81L0.044,-0.833L0.154,-0.833L0.166,-0.827L0.178,-0.804L0.178,0.093L0.166,0.116C0.148,0.122 0.129,0.125 0.107,0.125C0.085,0.126 0.064,0.126 0.044,0.126ZM0.658,-0.38L0.644,-0.392L0.644,-0.706L0.24,-0.706C0.229,-0.718 0.222,-0.732 0.221,-0.748C0.22,-0.764 0.22,-0.779 0.22,-0.795L0.237,-0.831L0.24,-0.834L0.76,-0.834L0.789,-0.813L0.789,-0.395L0.771,-0.38L0.658,-0.38ZM0.41,-0.397C0.4,-0.401 0.391,-0.405 0.383,-0.409C0.375,-0.413 0.367,-0.419 0.359,-0.428C0.352,-0.438 0.346,-0.449 0.342,-0.461C0.338,-0.474 0.337,-0.488 0.339,-0.502C0.341,-0.512 0.344,-0.521 0.349,-0.53C0.354,-0.539 0.36,-0.547 0.368,-0.556C0.379,-0.563 0.39,-0.569 0.403,-0.573C0.416,-0.577 0.429,-0.578 0.443,-0.576C0.453,-0.574 0.462,-0.571 0.471,-0.566C0.48,-0.561 0.488,-0.555 0.496,-0.547C0.505,-0.536 0.511,-0.525 0.515,-0.512C0.519,-0.5 0.52,-0.486 0.518,-0.472C0.516,-0.462 0.512,-0.453 0.507,-0.444C0.502,-0.435 0.496,-0.426 0.487,-0.418C0.478,-0.41 0.466,-0.404 0.453,-0.4C0.44,-0.396 0.426,-0.396 0.41,-0.397Z" style="fill:rgb(232,124,72);fill-opacity:0.6;fill-rule:nonzero;"/>
            </g>
            <g transform="matrix(239.952,0,0,239.952,860.526,4071.68)">
                <path d="M0.044,0.126L0.023,0.103L0.023,-0.81L0.044,-0.833L0.154,-0.833L0.166,-0.827L0.178,-0.804L0.178,0.093L0.166,0.116C0.148,0.122 0.129,0.125 0.107,0.125C0.085,0.126 0.064,0.126 0.044,0.126ZM0.658,-0.38L0.644,-0.392L0.644,-0.706L0.24,-0.706C0.229,-0.718 0.222,-0.732 0.221,-0.748C0.22,-0.764 0.22,-0.779 0.22,-0.795L0.237,-0.831L0.24,-0.834L0.76,-0.834L0.789,-0.813L0.789,-0.395L0.771,-0.38L0.658,-0.38ZM0.41,-0.397C0.4,-0.401 0.391,-0.405 0.383,-0.409C0.375,-0.413 0.367,-0.419 0.359,-0.428C0.352,-0.438 0.346,-0.449 0.342,-0.461C0.338,-0.474 0.337,-0.488 0.339,-0.502C0.341,-0.512 0.344,-0.521 0.349,-0.53C0.354,-0.539 0.36,-0.547 0.368,-0.556C0.379,-0.563 0.39,-0.569 0.403,-0.573C0.416,-0.577 0.429,-0.578 0.443,-0.576C0.453,-0.574 0.462,-0.571 0.471,-0.566C0.48,-0.561 0.488,-0.555 0.496,-0.547C0.505,-0.536 0.511,-0.525 0.515,-0.512C0.519,-0.5 0.52,-0.486 0.518,-0.472C0.516,-0.462 0.512,-0.453 0.507,-0.444C0.502,-0.435 0.496,-0.426 0.487,-0.418C0.478,-0.41 0.466,-0.404 0.453,-0.4C0.44,-0.396 0.426,-0.396 0.41,-0.397Z" style="fill:rgb(232,124,72);fill-opacity:0.6;fill-rule:nonzero;"/>
            </g>
            <g transform="matrix(239.952,0,0,239.952,1056.19,4071.68)">
                <path d="M0.356,0.124L0.339,0.104L0.336,0.019L0.348,-0.009L0.351,-0.012L0.643,-0.012L0.643,-0.704L0.44,-0.704C0.43,-0.718 0.425,-0.734 0.425,-0.752L0.425,-0.806L0.438,-0.832L0.44,-0.835L0.774,-0.835L0.792,-0.814L0.792,0.101L0.771,0.124L0.356,0.124ZM0.092,0.105C0.084,0.104 0.076,0.101 0.068,0.097C0.06,0.093 0.052,0.088 0.044,0.082C0.034,0.072 0.027,0.06 0.023,0.047C0.02,0.035 0.018,0.021 0.018,0.007C0.02,-0.003 0.022,-0.012 0.026,-0.021C0.03,-0.03 0.035,-0.038 0.041,-0.047C0.053,-0.057 0.066,-0.064 0.08,-0.069C0.094,-0.074 0.109,-0.075 0.125,-0.073C0.135,-0.071 0.144,-0.068 0.153,-0.063C0.162,-0.058 0.17,-0.05 0.178,-0.04C0.188,-0.03 0.194,-0.019 0.196,-0.005C0.198,0.009 0.198,0.023 0.196,0.037C0.194,0.047 0.19,0.056 0.184,0.063C0.178,0.071 0.171,0.079 0.163,0.088C0.153,0.096 0.142,0.101 0.13,0.104C0.118,0.107 0.105,0.107 0.092,0.105ZM0.049,-0.397L0.028,-0.409L0.025,-0.412L0.025,-0.814L0.046,-0.835L0.359,-0.835L0.378,-0.814L0.377,-0.741L0.364,-0.711L0.355,-0.705L0.179,-0.705L0.179,-0.412C0.161,-0.4 0.141,-0.396 0.119,-0.397C0.096,-0.399 0.073,-0.399 0.049,-0.397Z" style="fill:rgb(232,124,72);fill-opacity:0.6;fill-rule:nonzero;"/>
            </g>
            <g transform="matrix(239.952,0,0,239.952,1251.85,4071.68)">
                <path d="M0.048,0.125L0.036,0.119L0.024,0.096L0.024,-0.808L0.045,-0.834L0.154,-0.834L0.175,-0.811L0.178,-0.796L0.178,0.087L0.163,0.119C0.146,0.125 0.127,0.127 0.107,0.126C0.088,0.125 0.068,0.125 0.048,0.125ZM0.656,0.114L0.642,0.103L0.642,-0.201L0.25,-0.201L0.229,-0.21C0.22,-0.222 0.215,-0.236 0.214,-0.253C0.214,-0.27 0.214,-0.286 0.214,-0.303L0.226,-0.326L0.234,-0.332L0.766,-0.332L0.792,-0.314L0.792,0.105L0.777,0.114L0.656,0.114ZM0.659,-0.397L0.642,-0.409L0.642,-0.704L0.233,-0.704L0.213,-0.729L0.214,-0.803L0.229,-0.829L0.237,-0.835L0.76,-0.835L0.789,-0.817L0.792,-0.814L0.792,-0.409L0.774,-0.397L0.659,-0.397ZM0.396,-0.442L0.354,-0.463C0.342,-0.475 0.334,-0.487 0.33,-0.501C0.326,-0.515 0.325,-0.532 0.327,-0.55L0.354,-0.597C0.363,-0.605 0.374,-0.611 0.385,-0.615C0.396,-0.619 0.408,-0.621 0.422,-0.621C0.434,-0.619 0.445,-0.615 0.455,-0.609C0.464,-0.603 0.475,-0.595 0.487,-0.585C0.493,-0.575 0.498,-0.565 0.501,-0.554C0.504,-0.543 0.506,-0.531 0.506,-0.52C0.504,-0.508 0.5,-0.497 0.495,-0.487C0.49,-0.477 0.481,-0.468 0.469,-0.46C0.462,-0.452 0.451,-0.447 0.437,-0.444C0.423,-0.441 0.409,-0.44 0.396,-0.442Z" style="fill:rgb(232,124,72);fill-opacity:0.6;fill-rule:nonzero;"/>
            </g>
            <g transform="matrix(239.952,0,0,239.952,1447.52,4071.68)">
                <path d="M0.247,0.126L0.235,0.12L0.224,0.097L0.224,-0.704L0.04,-0.704C0.028,-0.718 0.023,-0.734 0.024,-0.752C0.025,-0.77 0.025,-0.787 0.025,-0.806L0.034,-0.829L0.04,-0.832L0.34,-0.832L0.372,-0.814L0.382,-0.791L0.382,0.084L0.366,0.116C0.349,0.122 0.329,0.125 0.309,0.125C0.288,0.126 0.267,0.126 0.247,0.126ZM0.459,0.126L0.438,0.103L0.435,0.088L0.435,-0.791L0.447,-0.82L0.477,-0.832L0.776,-0.832L0.782,-0.829C0.788,-0.815 0.79,-0.8 0.789,-0.782C0.788,-0.764 0.787,-0.747 0.787,-0.731L0.775,-0.707L0.772,-0.704L0.593,-0.704L0.593,0.093L0.581,0.116C0.563,0.122 0.543,0.125 0.521,0.125C0.499,0.126 0.479,0.126 0.459,0.126Z" style="fill:rgb(232,124,72);fill-opacity:0.6;fill-rule:nonzero;"/>
            </g>
            <g transform="matrix(239.952,0,0,239.952,273.533,4311.63)">
                <path d="M0.05,0.121L0.029,0.098L0.026,0.08L0.026,-0.803L0.05,-0.829L0.059,-0.832L0.757,-0.832L0.777,-0.82C0.785,-0.811 0.789,-0.798 0.789,-0.783L0.789,-0.739L0.774,-0.712L0.76,-0.703L0.176,-0.703L0.176,0.095L0.155,0.121L0.05,0.121ZM0.652,0.123L0.638,0.108L0.638,-0.287L0.236,-0.287L0.216,-0.312L0.217,-0.38L0.229,-0.409L0.243,-0.418L0.771,-0.418L0.788,-0.412L0.791,-0.4L0.791,0.103L0.782,0.117L0.773,0.123L0.652,0.123Z" style="fill:rgb(232,124,72);fill-opacity:0.6;fill-rule:nonzero;"/>
            </g>
            <g transform="matrix(239.952,0,0,239.952,469.198,4311.63)">
                <path d="M0.048,0.125L0.036,0.119L0.024,0.096L0.024,-0.808L0.045,-0.834L0.154,-0.834L0.175,-0.811L0.178,-0.796L0.178,0.087L0.163,0.119C0.146,0.125 0.127,0.127 0.107,0.126C0.088,0.125 0.068,0.125 0.048,0.125ZM0.656,0.114L0.642,0.103L0.642,-0.201L0.25,-0.201L0.229,-0.21C0.22,-0.222 0.215,-0.236 0.214,-0.253C0.214,-0.27 0.214,-0.286 0.214,-0.303L0.226,-0.326L0.234,-0.332L0.766,-0.332L0.792,-0.314L0.792,0.105L0.777,0.114L0.656,0.114ZM0.659,-0.397L0.642,-0.409L0.642,-0.704L0.233,-0.704L0.213,-0.729L0.214,-0.803L0.229,-0.829L0.237,-0.835L0.76,-0.835L0.789,-0.817L0.792,-0.814L0.792,-0.409L0.774,-0.397L0.659,-0.397ZM0.396,-0.442L0.354,-0.463C0.342,-0.475 0.334,-0.487 0.33,-0.501C0.326,-0.515 0.325,-0.532 0.327,-0.55L0.354,-0.597C0.363,-0.605 0.374,-0.611 0.385,-0.615C0.396,-0.619 0.408,-0.621 0.422,-0.621C0.434,-0.619 0.445,-0.615 0.455,-0.609C0.464,-0.603 0.475,-0.595 0.487,-0.585C0.493,-0.575 0.498,-0.565 0.501,-0.554C0.504,-0.543 0.506,-0.531 0.506,-0.52C0.504,-0.508 0.5,-0.497 0.495,-0.487C0.49,-0.477 0.481,-0.468 0.469,-0.46C0.462,-0.452 0.451,-0.447 0.437,-0.444C0.423,-0.441 0.409,-0.44 0.396,-0.442Z" style="fill:rgb(232,124,72);fill-opacity:0.6;fill-rule:nonzero;"/>
            </g>
            <g transform="matrix(239.952,0,0,239.952,664.862,4311.63)">
                <path d="M0.05,0.121L0.029,0.109L0.026,0.106L0.026,-0.323L0.044,-0.338L0.158,-0.338L0.176,-0.323L0.176,-0.012L0.764,-0.012L0.79,0.012L0.789,0.089L0.777,0.109L0.757,0.121L0.05,0.121ZM0.66,-0.284C0.652,-0.286 0.645,-0.289 0.637,-0.293C0.629,-0.298 0.622,-0.303 0.615,-0.309C0.605,-0.32 0.599,-0.333 0.595,-0.347C0.591,-0.361 0.59,-0.376 0.592,-0.392L0.618,-0.439C0.629,-0.447 0.64,-0.453 0.651,-0.457C0.663,-0.461 0.676,-0.463 0.69,-0.463C0.702,-0.461 0.713,-0.457 0.724,-0.451C0.735,-0.445 0.744,-0.438 0.753,-0.428C0.759,-0.417 0.763,-0.407 0.766,-0.396C0.769,-0.385 0.771,-0.374 0.771,-0.362C0.769,-0.35 0.765,-0.339 0.76,-0.329C0.755,-0.319 0.748,-0.311 0.737,-0.303C0.728,-0.294 0.716,-0.289 0.702,-0.286C0.688,-0.283 0.674,-0.282 0.66,-0.284ZM0.044,-0.38L0.026,-0.395L0.026,-0.82L0.05,-0.835L0.757,-0.835L0.777,-0.823C0.785,-0.813 0.789,-0.8 0.789,-0.784L0.789,-0.739L0.774,-0.715L0.76,-0.706L0.176,-0.706L0.176,-0.395L0.158,-0.38L0.044,-0.38Z" style="fill:rgb(232,124,72);fill-opacity:0.6;fill-rule:nonzero;"/>
            </g>
            <g transform="matrix(239.952,0,0,239.952,860.526,4311.63)">
                <path d="M0.05,0.121L0.029,0.098L0.026,0.08L0.026,-0.803L0.05,-0.829L0.059,-0.832L0.757,-0.832L0.777,-0.82C0.785,-0.811 0.789,-0.798 0.789,-0.783L0.789,-0.739L0.774,-0.712L0.76,-0.703L0.176,-0.703L0.176,0.095L0.155,0.121L0.05,0.121ZM0.652,0.123L0.638,0.108L0.638,-0.287L0.236,-0.287L0.216,-0.312L0.217,-0.38L0.229,-0.409L0.243,-0.418L0.771,-0.418L0.788,-0.412L0.791,-0.4L0.791,0.103L0.782,0.117L0.773,0.123L0.652,0.123Z" style="fill:rgb(232,124,72);fill-opacity:0.6;fill-rule:nonzero;"/>
            </g>
        </g>
    </g>
</svg>
