<?xml version="1.0" encoding="UTF-8" standalone="no"?>
<!DOCTYPE svg PUBLIC "-//W3C//DTD SVG 1.1//EN" "http://www.w3.org/Graphics/SVG/1.1/DTD/svg11.dtd">
<svg width="100%" height="100%" viewBox="0 0 108 66" version="1.1" xmlns="http://www.w3.org/2000/svg" xmlns:xlink="http://www.w3.org/1999/xlink" xml:space="preserve" xmlns:serif="http://www.serif.com/" style="fill-rule:evenodd;clip-rule:evenodd;stroke-linejoin:round;stroke-miterlimit:2;">
    <g transform="matrix(1,0,0,1,-190.477,-5023.74)">
        <g transform="matrix(0.138917,0,0,0.138917,151.698,4485.94)">
            <g transform="matrix(239.952,0,0,239.952,273.533,4071.68)">
                <path d="M0.247,0.126L0.235,0.12L0.224,0.097L0.224,-0.704L0.04,-0.704C0.028,-0.718 0.023,-0.734 0.024,-0.752C0.025,-0.77 0.025,-0.787 0.025,-0.806L0.034,-0.829L0.04,-0.832L0.34,-0.832L0.372,-0.814L0.382,-0.791L0.382,0.084L0.366,0.116C0.349,0.122 0.329,0.125 0.309,0.125C0.288,0.126 0.267,0.126 0.247,0.126ZM0.459,0.126L0.438,0.103L0.435,0.088L0.435,-0.791L0.447,-0.82L0.477,-0.832L0.776,-0.832L0.782,-0.829C0.788,-0.815 0.79,-0.8 0.789,-0.782C0.788,-0.764 0.787,-0.747 0.787,-0.731L0.775,-0.707L0.772,-0.704L0.593,-0.704L0.593,0.093L0.581,0.116C0.563,0.122 0.543,0.125 0.521,0.125C0.499,0.126 0.479,0.126 0.459,0.126Z" style="fill:rgb(232,124,72);fill-opacity:0.6;fill-rule:nonzero;"/>
            </g>
            <g transform="matrix(239.952,0,0,239.952,469.198,4071.68)">
                <path d="M0.356,0.124L0.339,0.104L0.336,0.019L0.348,-0.009L0.351,-0.012L0.643,-0.012L0.643,-0.704L0.44,-0.704C0.43,-0.718 0.425,-0.734 0.425,-0.752L0.425,-0.806L0.438,-0.832L0.44,-0.835L0.774,-0.835L0.792,-0.814L0.792,0.101L0.771,0.124L0.356,0.124ZM0.092,0.105C0.084,0.104 0.076,0.101 0.068,0.097C0.06,0.093 0.052,0.088 0.044,0.082C0.034,0.072 0.027,0.06 0.023,0.047C0.02,0.035 0.018,0.021 0.018,0.007C0.02,-0.003 0.022,-0.012 0.026,-0.021C0.03,-0.03 0.035,-0.038 0.041,-0.047C0.053,-0.057 0.066,-0.064 0.08,-0.069C0.094,-0.074 0.109,-0.075 0.125,-0.073C0.135,-0.071 0.144,-0.068 0.153,-0.063C0.162,-0.058 0.17,-0.05 0.178,-0.04C0.188,-0.03 0.194,-0.019 0.196,-0.005C0.198,0.009 0.198,0.023 0.196,0.037C0.194,0.047 0.19,0.056 0.184,0.063C0.178,0.071 0.171,0.079 0.163,0.088C0.153,0.096 0.142,0.101 0.13,0.104C0.118,0.107 0.105,0.107 0.092,0.105ZM0.049,-0.397L0.028,-0.409L0.025,-0.412L0.025,-0.814L0.046,-0.835L0.359,-0.835L0.378,-0.814L0.377,-0.741L0.364,-0.711L0.355,-0.705L0.179,-0.705L0.179,-0.412C0.161,-0.4 0.141,-0.396 0.119,-0.397C0.096,-0.399 0.073,-0.399 0.049,-0.397Z" style="fill:rgb(232,124,72);fill-opacity:0.6;fill-rule:nonzero;"/>
            </g>
            <g transform="matrix(239.952,0,0,239.952,664.862,4071.68)">
                <path d="M0.044,0.126L0.023,0.103L0.023,-0.81L0.044,-0.833L0.154,-0.833L0.166,-0.827L0.178,-0.804L0.178,0.093L0.166,0.116C0.148,0.122 0.129,0.125 0.107,0.125C0.085,0.126 0.064,0.126 0.044,0.126ZM0.658,-0.38L0.644,-0.392L0.644,-0.706L0.24,-0.706C0.229,-0.718 0.222,-0.732 0.221,-0.748C0.22,-0.764 0.22,-0.779 0.22,-0.795L0.237,-0.831L0.24,-0.834L0.76,-0.834L0.789,-0.813L0.789,-0.395L0.771,-0.38L0.658,-0.38ZM0.41,-0.397C0.4,-0.401 0.391,-0.405 0.383,-0.409C0.375,-0.413 0.367,-0.419 0.359,-0.428C0.352,-0.438 0.346,-0.449 0.342,-0.461C0.338,-0.474 0.337,-0.488 0.339,-0.502C0.341,-0.512 0.344,-0.521 0.349,-0.53C0.354,-0.539 0.36,-0.547 0.368,-0.556C0.379,-0.563 0.39,-0.569 0.403,-0.573C0.416,-0.577 0.429,-0.578 0.443,-0.576C0.453,-0.574 0.462,-0.571 0.471,-0.566C0.48,-0.561 0.488,-0.555 0.496,-0.547C0.505,-0.536 0.511,-0.525 0.515,-0.512C0.519,-0.5 0.52,-0.486 0.518,-0.472C0.516,-0.462 0.512,-0.453 0.507,-0.444C0.502,-0.435 0.496,-0.426 0.487,-0.418C0.478,-0.41 0.466,-0.404 0.453,-0.4C0.44,-0.396 0.426,-0.396 0.41,-0.397Z" style="fill:rgb(232,124,72);fill-opacity:0.6;fill-rule:nonzero;"/>
            </g>
            <g transform="matrix(239.952,0,0,239.952,273.533,4311.63)">
                <path d="M0.044,0.126L0.023,0.103L0.023,-0.81L0.044,-0.833L0.154,-0.833L0.166,-0.827L0.178,-0.804L0.178,0.093L0.166,0.116C0.148,0.122 0.129,0.125 0.107,0.125C0.085,0.126 0.064,0.126 0.044,0.126ZM0.658,-0.38L0.644,-0.392L0.644,-0.706L0.24,-0.706C0.229,-0.718 0.222,-0.732 0.221,-0.748C0.22,-0.764 0.22,-0.779 0.22,-0.795L0.237,-0.831L0.24,-0.834L0.76,-0.834L0.789,-0.813L0.789,-0.395L0.771,-0.38L0.658,-0.38ZM0.41,-0.397C0.4,-0.401 0.391,-0.405 0.383,-0.409C0.375,-0.413 0.367,-0.419 0.359,-0.428C0.352,-0.438 0.346,-0.449 0.342,-0.461C0.338,-0.474 0.337,-0.488 0.339,-0.502C0.341,-0.512 0.344,-0.521 0.349,-0.53C0.354,-0.539 0.36,-0.547 0.368,-0.556C0.379,-0.563 0.39,-0.569 0.403,-0.573C0.416,-0.577 0.429,-0.578 0.443,-0.576C0.453,-0.574 0.462,-0.571 0.471,-0.566C0.48,-0.561 0.488,-0.555 0.496,-0.547C0.505,-0.536 0.511,-0.525 0.515,-0.512C0.519,-0.5 0.52,-0.486 0.518,-0.472C0.516,-0.462 0.512,-0.453 0.507,-0.444C0.502,-0.435 0.496,-0.426 0.487,-0.418C0.478,-0.41 0.466,-0.404 0.453,-0.4C0.44,-0.396 0.426,-0.396 0.41,-0.397Z" style="fill:rgb(232,124,72);fill-opacity:0.6;fill-rule:nonzero;"/>
            </g>
            <g transform="matrix(239.952,0,0,239.952,469.198,4311.63)">
                <path d="M0.05,0.121L0.029,0.098L0.026,0.08L0.026,-0.803L0.05,-0.829L0.059,-0.832L0.757,-0.832L0.777,-0.82C0.785,-0.811 0.789,-0.798 0.789,-0.783L0.789,-0.739L0.774,-0.712L0.76,-0.703L0.176,-0.703L0.176,0.095L0.155,0.121L0.05,0.121ZM0.652,0.123L0.638,0.108L0.638,-0.287L0.236,-0.287L0.216,-0.312L0.217,-0.38L0.229,-0.409L0.243,-0.418L0.771,-0.418L0.788,-0.412L0.791,-0.4L0.791,0.103L0.782,0.117L0.773,0.123L0.652,0.123Z" style="fill:rgb(232,124,72);fill-opacity:0.6;fill-rule:nonzero;"/>
            </g>
            <g transform="matrix(239.952,0,0,239.952,664.862,4311.63)">
                <path d="M0.043,0.125L0.025,0.104L0.025,-0.814L0.052,-0.832L0.758,-0.832L0.781,-0.817C0.787,-0.806 0.79,-0.792 0.79,-0.777L0.79,-0.733L0.764,-0.703L0.176,-0.703L0.176,0.087L0.161,0.119C0.144,0.125 0.125,0.127 0.104,0.126C0.083,0.125 0.063,0.125 0.043,0.125ZM0.419,0.111C0.409,0.109 0.399,0.106 0.39,0.101C0.38,0.096 0.371,0.089 0.362,0.079C0.354,0.069 0.349,0.057 0.346,0.043C0.343,0.029 0.343,0.015 0.345,0.001C0.347,-0.009 0.351,-0.018 0.356,-0.025C0.362,-0.033 0.369,-0.041 0.378,-0.049C0.388,-0.057 0.399,-0.063 0.412,-0.066C0.424,-0.069 0.438,-0.069 0.452,-0.067C0.462,-0.065 0.471,-0.062 0.479,-0.057C0.486,-0.051 0.494,-0.045 0.503,-0.037C0.511,-0.027 0.516,-0.016 0.519,-0.004C0.522,0.008 0.523,0.021 0.523,0.034C0.521,0.046 0.518,0.057 0.512,0.067C0.506,0.077 0.498,0.086 0.487,0.094C0.478,0.1 0.467,0.104 0.457,0.108C0.446,0.112 0.433,0.113 0.419,0.111ZM0.666,0.125L0.643,0.113L0.64,0.11L0.64,-0.284L0.246,-0.284L0.229,-0.3C0.225,-0.312 0.223,-0.325 0.223,-0.34L0.223,-0.383L0.234,-0.406L0.25,-0.415L0.77,-0.415L0.787,-0.409L0.79,-0.406L0.79,0.11C0.772,0.122 0.752,0.127 0.729,0.125C0.707,0.123 0.686,0.123 0.666,0.125Z" style="fill:rgb(232,124,72);fill-opacity:0.6;fill-rule:nonzero;"/>
            </g>
            <g transform="matrix(239.952,0,0,239.952,860.526,4311.63)">
                <path d="M0.05,0.121L0.029,0.109L0.026,0.106L0.026,-0.323L0.044,-0.338L0.158,-0.338L0.176,-0.323L0.176,-0.012L0.764,-0.012L0.79,0.012L0.789,0.089L0.777,0.109L0.757,0.121L0.05,0.121ZM0.66,-0.284C0.652,-0.286 0.645,-0.289 0.637,-0.293C0.629,-0.298 0.622,-0.303 0.615,-0.309C0.605,-0.32 0.599,-0.333 0.595,-0.347C0.591,-0.361 0.59,-0.376 0.592,-0.392L0.618,-0.439C0.629,-0.447 0.64,-0.453 0.651,-0.457C0.663,-0.461 0.676,-0.463 0.69,-0.463C0.702,-0.461 0.713,-0.457 0.724,-0.451C0.735,-0.445 0.744,-0.438 0.753,-0.428C0.759,-0.417 0.763,-0.407 0.766,-0.396C0.769,-0.385 0.771,-0.374 0.771,-0.362C0.769,-0.35 0.765,-0.339 0.76,-0.329C0.755,-0.319 0.748,-0.311 0.737,-0.303C0.728,-0.294 0.716,-0.289 0.702,-0.286C0.688,-0.283 0.674,-0.282 0.66,-0.284ZM0.044,-0.38L0.026,-0.395L0.026,-0.82L0.05,-0.835L0.757,-0.835L0.777,-0.823C0.785,-0.813 0.789,-0.8 0.789,-0.784L0.789,-0.739L0.774,-0.715L0.76,-0.706L0.176,-0.706L0.176,-0.395L0.158,-0.38L0.044,-0.38Z" style="fill:rgb(232,124,72);fill-opacity:0.6;fill-rule:nonzero;"/>
            </g>
        </g>
    </g>
</svg>
