<?xml version="1.0" encoding="UTF-8" standalone="no"?>
<!DOCTYPE svg PUBLIC "-//W3C//DTD SVG 1.1//EN" "http://www.w3.org/Graphics/SVG/1.1/DTD/svg11.dtd">
<svg width="100%" height="100%" viewBox="0 0 189 66" version="1.1" xmlns="http://www.w3.org/2000/svg" xmlns:xlink="http://www.w3.org/1999/xlink" xml:space="preserve" xmlns:serif="http://www.serif.com/" style="fill-rule:evenodd;clip-rule:evenodd;stroke-linejoin:round;stroke-miterlimit:2;">
    <g transform="matrix(1,0,0,1,-1433.6,-5023.73)">
        <g transform="matrix(0.138917,0,0,0.138917,1394.81,4485.94)">
            <g transform="matrix(239.952,0,0,239.952,273.533,4071.68)">
                <path d="M0.044,0.126L0.026,0.108L0.026,-0.815L0.044,-0.833L0.154,-0.833L0.175,-0.813L0.178,-0.804L0.178,0.097L0.163,0.116C0.146,0.122 0.126,0.125 0.105,0.125C0.085,0.126 0.064,0.126 0.044,0.126ZM0.236,0.123L0.216,0.103L0.217,0.021L0.231,-0.006L0.243,-0.012L0.637,-0.012L0.637,-0.323L0.64,-0.329C0.659,-0.337 0.68,-0.34 0.701,-0.339C0.723,-0.338 0.744,-0.338 0.767,-0.338L0.787,-0.326L0.79,-0.323L0.79,0.103L0.758,0.123L0.236,0.123ZM0.39,-0.085C0.38,-0.087 0.37,-0.091 0.36,-0.097C0.35,-0.103 0.341,-0.111 0.333,-0.121C0.325,-0.131 0.321,-0.143 0.32,-0.157C0.319,-0.171 0.318,-0.185 0.318,-0.198L0.351,-0.246C0.36,-0.254 0.371,-0.259 0.383,-0.262C0.395,-0.265 0.408,-0.266 0.422,-0.264C0.432,-0.262 0.442,-0.258 0.452,-0.252C0.462,-0.246 0.471,-0.238 0.479,-0.228C0.484,-0.22 0.489,-0.21 0.492,-0.2C0.495,-0.189 0.496,-0.178 0.496,-0.168C0.494,-0.156 0.491,-0.146 0.487,-0.136C0.483,-0.126 0.478,-0.117 0.47,-0.109C0.458,-0.099 0.446,-0.092 0.433,-0.088C0.42,-0.084 0.405,-0.083 0.39,-0.085ZM0.654,-0.386L0.637,-0.397L0.637,-0.704L0.24,-0.704L0.22,-0.725L0.217,-0.803L0.229,-0.826L0.243,-0.835L0.755,-0.835L0.79,-0.812L0.79,-0.4L0.772,-0.386L0.654,-0.386ZM0.39,-0.428C0.38,-0.432 0.37,-0.436 0.361,-0.439C0.352,-0.443 0.344,-0.45 0.336,-0.46C0.326,-0.47 0.321,-0.482 0.32,-0.496C0.319,-0.51 0.318,-0.524 0.318,-0.54C0.322,-0.55 0.327,-0.56 0.332,-0.567C0.336,-0.575 0.343,-0.582 0.351,-0.588C0.36,-0.596 0.371,-0.601 0.383,-0.604C0.395,-0.608 0.408,-0.608 0.422,-0.605C0.43,-0.604 0.438,-0.601 0.446,-0.597C0.454,-0.593 0.462,-0.588 0.47,-0.582C0.478,-0.572 0.484,-0.561 0.489,-0.549C0.494,-0.537 0.496,-0.524 0.496,-0.511C0.494,-0.499 0.491,-0.487 0.486,-0.475C0.481,-0.463 0.473,-0.453 0.461,-0.445C0.451,-0.438 0.44,-0.432 0.428,-0.429C0.416,-0.426 0.403,-0.426 0.39,-0.428Z" style="fill:rgb(232,124,72);fill-opacity:0.6;fill-rule:nonzero;"/>
            </g>
            <g transform="matrix(239.952,0,0,239.952,469.198,4071.68)">
                <path d="M0.044,0.126L0.026,0.108L0.026,-0.815L0.044,-0.833L0.154,-0.833L0.175,-0.813L0.178,-0.804L0.178,0.097L0.163,0.116C0.146,0.122 0.126,0.125 0.105,0.125C0.085,0.126 0.064,0.126 0.044,0.126ZM0.236,0.123L0.216,0.103L0.217,0.021L0.231,-0.006L0.243,-0.012L0.637,-0.012L0.637,-0.323L0.64,-0.329C0.659,-0.337 0.68,-0.34 0.701,-0.339C0.723,-0.338 0.744,-0.338 0.767,-0.338L0.787,-0.326L0.79,-0.323L0.79,0.103L0.758,0.123L0.236,0.123ZM0.39,-0.085C0.38,-0.087 0.37,-0.091 0.36,-0.097C0.35,-0.103 0.341,-0.111 0.333,-0.121C0.325,-0.131 0.321,-0.143 0.32,-0.157C0.319,-0.171 0.318,-0.185 0.318,-0.198L0.351,-0.246C0.36,-0.254 0.371,-0.259 0.383,-0.262C0.395,-0.265 0.408,-0.266 0.422,-0.264C0.432,-0.262 0.442,-0.258 0.452,-0.252C0.462,-0.246 0.471,-0.238 0.479,-0.228C0.484,-0.22 0.489,-0.21 0.492,-0.2C0.495,-0.189 0.496,-0.178 0.496,-0.168C0.494,-0.156 0.491,-0.146 0.487,-0.136C0.483,-0.126 0.478,-0.117 0.47,-0.109C0.458,-0.099 0.446,-0.092 0.433,-0.088C0.42,-0.084 0.405,-0.083 0.39,-0.085ZM0.654,-0.386L0.637,-0.397L0.637,-0.704L0.24,-0.704L0.22,-0.725L0.217,-0.803L0.229,-0.826L0.243,-0.835L0.755,-0.835L0.79,-0.812L0.79,-0.4L0.772,-0.386L0.654,-0.386ZM0.39,-0.428C0.38,-0.432 0.37,-0.436 0.361,-0.439C0.352,-0.443 0.344,-0.45 0.336,-0.46C0.326,-0.47 0.321,-0.482 0.32,-0.496C0.319,-0.51 0.318,-0.524 0.318,-0.54C0.322,-0.55 0.327,-0.56 0.332,-0.567C0.336,-0.575 0.343,-0.582 0.351,-0.588C0.36,-0.596 0.371,-0.601 0.383,-0.604C0.395,-0.608 0.408,-0.608 0.422,-0.605C0.43,-0.604 0.438,-0.601 0.446,-0.597C0.454,-0.593 0.462,-0.588 0.47,-0.582C0.478,-0.572 0.484,-0.561 0.489,-0.549C0.494,-0.537 0.496,-0.524 0.496,-0.511C0.494,-0.499 0.491,-0.487 0.486,-0.475C0.481,-0.463 0.473,-0.453 0.461,-0.445C0.451,-0.438 0.44,-0.432 0.428,-0.429C0.416,-0.426 0.403,-0.426 0.39,-0.428Z" style="fill:rgb(232,124,72);fill-opacity:0.6;fill-rule:nonzero;"/>
            </g>
            <g transform="matrix(239.952,0,0,239.952,664.862,4071.68)">
                <path d="M0.661,0.127L0.646,0.118L0.641,0.109L0.641,-0.207L0.052,-0.207L0.031,-0.219C0.025,-0.233 0.023,-0.248 0.024,-0.264C0.025,-0.279 0.025,-0.295 0.025,-0.312L0.049,-0.332L0.772,-0.332L0.79,-0.317L0.79,0.108C0.772,0.12 0.753,0.126 0.73,0.125C0.708,0.124 0.685,0.125 0.661,0.127ZM0.134,0.105C0.121,0.104 0.11,0.1 0.101,0.095C0.091,0.09 0.081,0.084 0.071,0.075C0.061,0.063 0.054,0.051 0.051,0.039C0.048,0.026 0.048,0.011 0.05,-0.005L0.077,-0.053C0.089,-0.063 0.102,-0.069 0.116,-0.072C0.13,-0.075 0.145,-0.075 0.16,-0.073C0.168,-0.071 0.176,-0.068 0.186,-0.063C0.195,-0.058 0.202,-0.051 0.208,-0.043C0.216,-0.033 0.221,-0.023 0.224,-0.012C0.227,-0.001 0.229,0.01 0.229,0.022C0.227,0.034 0.223,0.045 0.218,0.056C0.213,0.067 0.206,0.076 0.196,0.085C0.188,0.093 0.178,0.098 0.167,0.101C0.157,0.104 0.146,0.105 0.134,0.105ZM0.037,-0.386L0.025,-0.392L0.025,-0.824L0.043,-0.833L0.758,-0.833L0.778,-0.821C0.786,-0.812 0.79,-0.799 0.79,-0.782L0.79,-0.737L0.772,-0.71L0.761,-0.704L0.177,-0.704L0.177,-0.397L0.162,-0.386L0.037,-0.386ZM0.663,-0.425C0.653,-0.429 0.645,-0.433 0.637,-0.437C0.629,-0.44 0.621,-0.446 0.612,-0.454C0.604,-0.464 0.599,-0.475 0.595,-0.488C0.591,-0.501 0.59,-0.515 0.592,-0.528C0.594,-0.538 0.597,-0.548 0.602,-0.557C0.607,-0.566 0.613,-0.574 0.621,-0.582C0.632,-0.59 0.643,-0.596 0.656,-0.6C0.668,-0.604 0.682,-0.604 0.696,-0.603C0.706,-0.601 0.715,-0.597 0.724,-0.592C0.733,-0.587 0.742,-0.581 0.75,-0.573C0.758,-0.563 0.764,-0.552 0.768,-0.539C0.771,-0.526 0.772,-0.513 0.771,-0.499C0.769,-0.489 0.765,-0.48 0.76,-0.471C0.755,-0.462 0.749,-0.453 0.74,-0.445C0.73,-0.438 0.719,-0.432 0.707,-0.428C0.694,-0.424 0.679,-0.423 0.663,-0.425Z" style="fill:rgb(232,124,72);fill-opacity:0.6;fill-rule:nonzero;"/>
            </g>
            <g transform="matrix(239.952,0,0,239.952,273.533,4311.63)">
                <path d="M0.661,0.127L0.646,0.118L0.641,0.109L0.641,-0.207L0.052,-0.207L0.031,-0.219C0.025,-0.233 0.023,-0.248 0.024,-0.264C0.025,-0.279 0.025,-0.295 0.025,-0.312L0.049,-0.332L0.772,-0.332L0.79,-0.317L0.79,0.108C0.772,0.12 0.753,0.126 0.73,0.125C0.708,0.124 0.685,0.125 0.661,0.127ZM0.134,0.105C0.121,0.104 0.11,0.1 0.101,0.095C0.091,0.09 0.081,0.084 0.071,0.075C0.061,0.063 0.054,0.051 0.051,0.039C0.048,0.026 0.048,0.011 0.05,-0.005L0.077,-0.053C0.089,-0.063 0.102,-0.069 0.116,-0.072C0.13,-0.075 0.145,-0.075 0.16,-0.073C0.168,-0.071 0.176,-0.068 0.186,-0.063C0.195,-0.058 0.202,-0.051 0.208,-0.043C0.216,-0.033 0.221,-0.023 0.224,-0.012C0.227,-0.001 0.229,0.01 0.229,0.022C0.227,0.034 0.223,0.045 0.218,0.056C0.213,0.067 0.206,0.076 0.196,0.085C0.188,0.093 0.178,0.098 0.167,0.101C0.157,0.104 0.146,0.105 0.134,0.105ZM0.037,-0.386L0.025,-0.392L0.025,-0.824L0.043,-0.833L0.758,-0.833L0.778,-0.821C0.786,-0.812 0.79,-0.799 0.79,-0.782L0.79,-0.737L0.772,-0.71L0.761,-0.704L0.177,-0.704L0.177,-0.397L0.162,-0.386L0.037,-0.386ZM0.663,-0.425C0.653,-0.429 0.645,-0.433 0.637,-0.437C0.629,-0.44 0.621,-0.446 0.612,-0.454C0.604,-0.464 0.599,-0.475 0.595,-0.488C0.591,-0.501 0.59,-0.515 0.592,-0.528C0.594,-0.538 0.597,-0.548 0.602,-0.557C0.607,-0.566 0.613,-0.574 0.621,-0.582C0.632,-0.59 0.643,-0.596 0.656,-0.6C0.668,-0.604 0.682,-0.604 0.696,-0.603C0.706,-0.601 0.715,-0.597 0.724,-0.592C0.733,-0.587 0.742,-0.581 0.75,-0.573C0.758,-0.563 0.764,-0.552 0.768,-0.539C0.771,-0.526 0.772,-0.513 0.771,-0.499C0.769,-0.489 0.765,-0.48 0.76,-0.471C0.755,-0.462 0.749,-0.453 0.74,-0.445C0.73,-0.438 0.719,-0.432 0.707,-0.428C0.694,-0.424 0.679,-0.423 0.663,-0.425Z" style="fill:rgb(232,124,72);fill-opacity:0.6;fill-rule:nonzero;"/>
            </g>
            <g transform="matrix(239.952,0,0,239.952,469.198,4311.63)">
                <path d="M0.05,0.121L0.029,0.109L0.026,0.106L0.026,-0.323L0.044,-0.338L0.158,-0.338L0.176,-0.323L0.176,-0.012L0.764,-0.012L0.79,0.012L0.789,0.089L0.777,0.109L0.757,0.121L0.05,0.121ZM0.66,-0.284C0.652,-0.286 0.645,-0.289 0.637,-0.293C0.629,-0.298 0.622,-0.303 0.615,-0.309C0.605,-0.32 0.599,-0.333 0.595,-0.347C0.591,-0.361 0.59,-0.376 0.592,-0.392L0.618,-0.439C0.629,-0.447 0.64,-0.453 0.651,-0.457C0.663,-0.461 0.676,-0.463 0.69,-0.463C0.702,-0.461 0.713,-0.457 0.724,-0.451C0.735,-0.445 0.744,-0.438 0.753,-0.428C0.759,-0.417 0.763,-0.407 0.766,-0.396C0.769,-0.385 0.771,-0.374 0.771,-0.362C0.769,-0.35 0.765,-0.339 0.76,-0.329C0.755,-0.319 0.748,-0.311 0.737,-0.303C0.728,-0.294 0.716,-0.289 0.702,-0.286C0.688,-0.283 0.674,-0.282 0.66,-0.284ZM0.044,-0.38L0.026,-0.395L0.026,-0.82L0.05,-0.835L0.757,-0.835L0.777,-0.823C0.785,-0.813 0.789,-0.8 0.789,-0.784L0.789,-0.739L0.774,-0.715L0.76,-0.706L0.176,-0.706L0.176,-0.395L0.158,-0.38L0.044,-0.38Z" style="fill:rgb(232,124,72);fill-opacity:0.6;fill-rule:nonzero;"/>
            </g>
            <g transform="matrix(239.952,0,0,239.952,664.862,4311.63)">
                <path d="M0.044,0.124L0.023,0.115L0.023,-0.326L0.038,-0.335L0.16,-0.335L0.178,-0.317L0.178,-0.013L0.762,-0.013C0.768,-0.011 0.773,-0.007 0.779,-0.001C0.785,0.005 0.789,0.011 0.791,0.018L0.791,0.092L0.779,0.112L0.759,0.124L0.044,0.124ZM0.695,-0.053C0.683,-0.055 0.671,-0.059 0.661,-0.064C0.65,-0.07 0.641,-0.078 0.633,-0.088C0.625,-0.098 0.619,-0.108 0.616,-0.119C0.613,-0.13 0.612,-0.143 0.614,-0.156C0.616,-0.167 0.62,-0.177 0.625,-0.187C0.63,-0.196 0.638,-0.205 0.647,-0.213C0.657,-0.221 0.669,-0.226 0.683,-0.229C0.697,-0.233 0.711,-0.233 0.725,-0.23C0.734,-0.229 0.743,-0.225 0.751,-0.219C0.76,-0.213 0.768,-0.206 0.775,-0.198C0.783,-0.188 0.789,-0.177 0.792,-0.164C0.794,-0.151 0.795,-0.138 0.793,-0.124L0.767,-0.076C0.757,-0.068 0.746,-0.063 0.734,-0.059C0.722,-0.055 0.709,-0.053 0.695,-0.053ZM0.038,-0.38L0.026,-0.386L0.023,-0.389L0.023,-0.826L0.044,-0.835L0.755,-0.835L0.775,-0.823C0.785,-0.812 0.79,-0.798 0.789,-0.781C0.788,-0.765 0.787,-0.75 0.787,-0.736C0.785,-0.73 0.781,-0.724 0.775,-0.718C0.77,-0.712 0.764,-0.708 0.758,-0.706L0.178,-0.706L0.178,-0.397L0.16,-0.38L0.038,-0.38ZM0.684,-0.487C0.673,-0.489 0.664,-0.493 0.656,-0.499C0.648,-0.505 0.641,-0.512 0.633,-0.52C0.625,-0.529 0.619,-0.54 0.616,-0.552C0.613,-0.564 0.612,-0.577 0.614,-0.591C0.616,-0.601 0.62,-0.611 0.626,-0.621C0.633,-0.631 0.641,-0.64 0.65,-0.647C0.66,-0.653 0.67,-0.658 0.68,-0.661C0.69,-0.664 0.701,-0.665 0.713,-0.665C0.723,-0.663 0.733,-0.66 0.743,-0.656C0.753,-0.652 0.762,-0.646 0.77,-0.639C0.779,-0.627 0.786,-0.614 0.79,-0.6C0.794,-0.586 0.795,-0.571 0.793,-0.556C0.791,-0.545 0.787,-0.536 0.781,-0.527C0.775,-0.518 0.768,-0.51 0.758,-0.502C0.747,-0.494 0.736,-0.49 0.723,-0.489C0.71,-0.488 0.697,-0.487 0.684,-0.487Z" style="fill:rgb(232,124,72);fill-opacity:0.6;fill-rule:nonzero;"/>
            </g>
            <g transform="matrix(239.952,0,0,239.952,860.526,4311.63)">
                <path d="M0.247,0.126L0.235,0.12L0.224,0.097L0.224,-0.704L0.04,-0.704C0.028,-0.718 0.023,-0.734 0.024,-0.752C0.025,-0.77 0.025,-0.787 0.025,-0.806L0.034,-0.829L0.04,-0.832L0.34,-0.832L0.372,-0.814L0.382,-0.791L0.382,0.084L0.366,0.116C0.349,0.122 0.329,0.125 0.309,0.125C0.288,0.126 0.267,0.126 0.247,0.126ZM0.459,0.126L0.438,0.103L0.435,0.088L0.435,-0.791L0.447,-0.82L0.477,-0.832L0.776,-0.832L0.782,-0.829C0.788,-0.815 0.79,-0.8 0.789,-0.782C0.788,-0.764 0.787,-0.747 0.787,-0.731L0.775,-0.707L0.772,-0.704L0.593,-0.704L0.593,0.093L0.581,0.116C0.563,0.122 0.543,0.125 0.521,0.125C0.499,0.126 0.479,0.126 0.459,0.126Z" style="fill:rgb(232,124,72);fill-opacity:0.6;fill-rule:nonzero;"/>
            </g>
            <g transform="matrix(239.952,0,0,239.952,1056.19,4311.63)">
                <path d="M0.352,0.126L0.331,0.105L0.328,0.094L0.328,-0.797L0.343,-0.823C0.36,-0.829 0.38,-0.832 0.4,-0.833C0.421,-0.833 0.442,-0.833 0.462,-0.833L0.482,-0.81L0.485,-0.801L0.485,0.09L0.471,0.116C0.453,0.122 0.434,0.125 0.413,0.125C0.392,0.126 0.372,0.126 0.352,0.126ZM0.131,-0.27C0.12,-0.271 0.11,-0.275 0.101,-0.28C0.091,-0.285 0.082,-0.291 0.074,-0.3C0.066,-0.31 0.06,-0.321 0.056,-0.333C0.052,-0.346 0.051,-0.361 0.053,-0.377C0.055,-0.387 0.058,-0.396 0.063,-0.405C0.069,-0.414 0.076,-0.422 0.086,-0.431C0.096,-0.438 0.107,-0.444 0.12,-0.447C0.133,-0.45 0.146,-0.45 0.16,-0.448C0.17,-0.446 0.179,-0.443 0.187,-0.438C0.195,-0.433 0.203,-0.426 0.211,-0.418C0.219,-0.408 0.224,-0.397 0.227,-0.386C0.23,-0.374 0.231,-0.361 0.231,-0.347C0.229,-0.335 0.226,-0.324 0.22,-0.314C0.214,-0.305 0.206,-0.296 0.196,-0.287C0.186,-0.281 0.175,-0.277 0.165,-0.274C0.154,-0.271 0.143,-0.27 0.131,-0.27ZM0.654,-0.27C0.645,-0.271 0.636,-0.274 0.627,-0.278C0.619,-0.282 0.611,-0.287 0.604,-0.293C0.594,-0.305 0.586,-0.318 0.582,-0.331C0.577,-0.343 0.575,-0.358 0.577,-0.374C0.579,-0.384 0.583,-0.394 0.587,-0.403C0.592,-0.413 0.6,-0.422 0.609,-0.431C0.62,-0.438 0.632,-0.444 0.646,-0.447C0.659,-0.45 0.673,-0.45 0.688,-0.448C0.697,-0.444 0.706,-0.44 0.714,-0.435C0.722,-0.43 0.729,-0.424 0.737,-0.415C0.746,-0.405 0.751,-0.395 0.754,-0.383C0.757,-0.371 0.756,-0.35 0.75,-0.32L0.729,-0.293C0.719,-0.285 0.707,-0.279 0.694,-0.275C0.681,-0.271 0.668,-0.27 0.654,-0.27Z" style="fill:rgb(232,124,72);fill-opacity:0.6;fill-rule:nonzero;"/>
            </g>
            <g transform="matrix(239.952,0,0,239.952,1251.85,4311.63)">
                <path d="M0.356,0.124L0.339,0.104L0.336,0.019L0.348,-0.009L0.351,-0.012L0.643,-0.012L0.643,-0.704L0.44,-0.704C0.43,-0.718 0.425,-0.734 0.425,-0.752L0.425,-0.806L0.438,-0.832L0.44,-0.835L0.774,-0.835L0.792,-0.814L0.792,0.101L0.771,0.124L0.356,0.124ZM0.092,0.105C0.084,0.104 0.076,0.101 0.068,0.097C0.06,0.093 0.052,0.088 0.044,0.082C0.034,0.072 0.027,0.06 0.023,0.047C0.02,0.035 0.018,0.021 0.018,0.007C0.02,-0.003 0.022,-0.012 0.026,-0.021C0.03,-0.03 0.035,-0.038 0.041,-0.047C0.053,-0.057 0.066,-0.064 0.08,-0.069C0.094,-0.074 0.109,-0.075 0.125,-0.073C0.135,-0.071 0.144,-0.068 0.153,-0.063C0.162,-0.058 0.17,-0.05 0.178,-0.04C0.188,-0.03 0.194,-0.019 0.196,-0.005C0.198,0.009 0.198,0.023 0.196,0.037C0.194,0.047 0.19,0.056 0.184,0.063C0.178,0.071 0.171,0.079 0.163,0.088C0.153,0.096 0.142,0.101 0.13,0.104C0.118,0.107 0.105,0.107 0.092,0.105ZM0.049,-0.397L0.028,-0.409L0.025,-0.412L0.025,-0.814L0.046,-0.835L0.359,-0.835L0.378,-0.814L0.377,-0.741L0.364,-0.711L0.355,-0.705L0.179,-0.705L0.179,-0.412C0.161,-0.4 0.141,-0.396 0.119,-0.397C0.096,-0.399 0.073,-0.399 0.049,-0.397Z" style="fill:rgb(232,124,72);fill-opacity:0.6;fill-rule:nonzero;"/>
            </g>
            <g transform="matrix(239.952,0,0,239.952,1447.52,4311.63)">
                <path d="M0.045,0.126L0.024,0.103L0.024,-0.806L0.042,-0.826L0.063,-0.832L0.375,-0.832L0.381,-0.829C0.387,-0.815 0.39,-0.8 0.39,-0.782L0.39,-0.731L0.378,-0.707L0.375,-0.704L0.179,-0.704L0.179,0.093L0.164,0.116C0.146,0.122 0.127,0.125 0.106,0.125C0.086,0.126 0.065,0.126 0.045,0.126ZM0.458,0.122L0.428,0.11L0.416,0.084L0.416,-0.797L0.431,-0.826C0.449,-0.832 0.468,-0.834 0.489,-0.833C0.51,-0.833 0.53,-0.832 0.55,-0.832L0.571,-0.812L0.574,-0.803L0.574,-0.002L0.773,-0.002C0.785,0.012 0.791,0.028 0.79,0.044C0.789,0.06 0.788,0.077 0.788,0.096L0.779,0.119L0.773,0.122L0.458,0.122Z" style="fill:rgb(232,124,72);fill-opacity:0.6;fill-rule:nonzero;"/>
            </g>
        </g>
    </g>
</svg>
