<?xml version="1.0" encoding="UTF-8" standalone="no"?>
<!DOCTYPE svg PUBLIC "-//W3C//DTD SVG 1.1//EN" "http://www.w3.org/Graphics/SVG/1.1/DTD/svg11.dtd">
<svg width="100%" height="100%" viewBox="0 0 162 66" version="1.1" xmlns="http://www.w3.org/2000/svg" xmlns:xlink="http://www.w3.org/1999/xlink" xml:space="preserve" xmlns:serif="http://www.serif.com/" style="fill-rule:evenodd;clip-rule:evenodd;stroke-linejoin:round;stroke-miterlimit:2;">
    <g transform="matrix(1,0,0,1,-922.957,-5023.74)">
        <g transform="matrix(0.138917,0,0,0.138917,884.177,4485.94)">
            <g transform="matrix(239.952,0,0,239.952,273.533,4071.68)">
                <path d="M0.044,0.124L0.023,0.115L0.023,-0.326L0.038,-0.335L0.16,-0.335L0.178,-0.317L0.178,-0.013L0.762,-0.013C0.768,-0.011 0.773,-0.007 0.779,-0.001C0.785,0.005 0.789,0.011 0.791,0.018L0.791,0.092L0.779,0.112L0.759,0.124L0.044,0.124ZM0.695,-0.053C0.683,-0.055 0.671,-0.059 0.661,-0.064C0.65,-0.07 0.641,-0.078 0.633,-0.088C0.625,-0.098 0.619,-0.108 0.616,-0.119C0.613,-0.13 0.612,-0.143 0.614,-0.156C0.616,-0.167 0.62,-0.177 0.625,-0.187C0.63,-0.196 0.638,-0.205 0.647,-0.213C0.657,-0.221 0.669,-0.226 0.683,-0.229C0.697,-0.233 0.711,-0.233 0.725,-0.23C0.734,-0.229 0.743,-0.225 0.751,-0.219C0.76,-0.213 0.768,-0.206 0.775,-0.198C0.783,-0.188 0.789,-0.177 0.792,-0.164C0.794,-0.151 0.795,-0.138 0.793,-0.124L0.767,-0.076C0.757,-0.068 0.746,-0.063 0.734,-0.059C0.722,-0.055 0.709,-0.053 0.695,-0.053ZM0.038,-0.38L0.026,-0.386L0.023,-0.389L0.023,-0.826L0.044,-0.835L0.755,-0.835L0.775,-0.823C0.785,-0.812 0.79,-0.798 0.789,-0.781C0.788,-0.765 0.787,-0.75 0.787,-0.736C0.785,-0.73 0.781,-0.724 0.775,-0.718C0.77,-0.712 0.764,-0.708 0.758,-0.706L0.178,-0.706L0.178,-0.397L0.16,-0.38L0.038,-0.38ZM0.684,-0.487C0.673,-0.489 0.664,-0.493 0.656,-0.499C0.648,-0.505 0.641,-0.512 0.633,-0.52C0.625,-0.529 0.619,-0.54 0.616,-0.552C0.613,-0.564 0.612,-0.577 0.614,-0.591C0.616,-0.601 0.62,-0.611 0.626,-0.621C0.633,-0.631 0.641,-0.64 0.65,-0.647C0.66,-0.653 0.67,-0.658 0.68,-0.661C0.69,-0.664 0.701,-0.665 0.713,-0.665C0.723,-0.663 0.733,-0.66 0.743,-0.656C0.753,-0.652 0.762,-0.646 0.77,-0.639C0.779,-0.627 0.786,-0.614 0.79,-0.6C0.794,-0.586 0.795,-0.571 0.793,-0.556C0.791,-0.545 0.787,-0.536 0.781,-0.527C0.775,-0.518 0.768,-0.51 0.758,-0.502C0.747,-0.494 0.736,-0.49 0.723,-0.489C0.71,-0.488 0.697,-0.487 0.684,-0.487Z" style="fill:rgb(232,124,72);fill-opacity:0.6;fill-rule:nonzero;"/>
            </g>
            <g transform="matrix(239.952,0,0,239.952,469.198,4071.68)">
                <path d="M0.356,0.124L0.339,0.104L0.336,0.019L0.348,-0.009L0.351,-0.012L0.643,-0.012L0.643,-0.704L0.44,-0.704C0.43,-0.718 0.425,-0.734 0.425,-0.752L0.425,-0.806L0.438,-0.832L0.44,-0.835L0.774,-0.835L0.792,-0.814L0.792,0.101L0.771,0.124L0.356,0.124ZM0.092,0.105C0.084,0.104 0.076,0.101 0.068,0.097C0.06,0.093 0.052,0.088 0.044,0.082C0.034,0.072 0.027,0.06 0.023,0.047C0.02,0.035 0.018,0.021 0.018,0.007C0.02,-0.003 0.022,-0.012 0.026,-0.021C0.03,-0.03 0.035,-0.038 0.041,-0.047C0.053,-0.057 0.066,-0.064 0.08,-0.069C0.094,-0.074 0.109,-0.075 0.125,-0.073C0.135,-0.071 0.144,-0.068 0.153,-0.063C0.162,-0.058 0.17,-0.05 0.178,-0.04C0.188,-0.03 0.194,-0.019 0.196,-0.005C0.198,0.009 0.198,0.023 0.196,0.037C0.194,0.047 0.19,0.056 0.184,0.063C0.178,0.071 0.171,0.079 0.163,0.088C0.153,0.096 0.142,0.101 0.13,0.104C0.118,0.107 0.105,0.107 0.092,0.105ZM0.049,-0.397L0.028,-0.409L0.025,-0.412L0.025,-0.814L0.046,-0.835L0.359,-0.835L0.378,-0.814L0.377,-0.741L0.364,-0.711L0.355,-0.705L0.179,-0.705L0.179,-0.412C0.161,-0.4 0.141,-0.396 0.119,-0.397C0.096,-0.399 0.073,-0.399 0.049,-0.397Z" style="fill:rgb(232,124,72);fill-opacity:0.6;fill-rule:nonzero;"/>
            </g>
            <g transform="matrix(239.952,0,0,239.952,664.862,4071.68)">
                <path d="M0.044,0.122L0.026,0.104L0.023,0.096L0.023,-0.806L0.041,-0.826L0.062,-0.832L0.373,-0.832L0.379,-0.829C0.385,-0.815 0.388,-0.8 0.387,-0.782C0.385,-0.764 0.385,-0.747 0.385,-0.731L0.372,-0.707L0.369,-0.704L0.178,-0.704L0.178,0.096L0.157,0.122L0.044,0.122ZM0.663,0.126L0.643,0.103L0.64,0.091L0.64,-0.704L0.447,-0.704C0.437,-0.714 0.431,-0.727 0.43,-0.743C0.429,-0.759 0.429,-0.775 0.429,-0.791L0.441,-0.829L0.444,-0.832L0.751,-0.832L0.78,-0.817L0.789,-0.8L0.789,0.093L0.774,0.116C0.757,0.122 0.739,0.125 0.721,0.125C0.702,0.126 0.683,0.126 0.663,0.126ZM0.39,0.091C0.38,0.089 0.371,0.085 0.363,0.079C0.355,0.072 0.347,0.065 0.339,0.058C0.331,0.048 0.326,0.037 0.323,0.025C0.32,0.013 0.319,0 0.321,-0.014L0.345,-0.062C0.354,-0.069 0.365,-0.076 0.377,-0.081C0.389,-0.085 0.402,-0.088 0.416,-0.088C0.428,-0.086 0.44,-0.083 0.452,-0.078C0.464,-0.073 0.474,-0.064 0.481,-0.053C0.487,-0.042 0.492,-0.032 0.497,-0.021C0.501,-0.01 0.502,0.002 0.5,0.016C0.497,0.026 0.494,0.036 0.489,0.046C0.484,0.056 0.477,0.064 0.467,0.072C0.457,0.081 0.445,0.086 0.431,0.089C0.417,0.092 0.403,0.093 0.39,0.091Z" style="fill:rgb(232,124,72);fill-opacity:0.6;fill-rule:nonzero;"/>
            </g>
            <g transform="matrix(239.952,0,0,239.952,860.526,4071.68)">
                <path d="M0.044,0.122L0.026,0.104L0.023,0.096L0.023,-0.806L0.041,-0.826L0.062,-0.832L0.373,-0.832L0.379,-0.829C0.385,-0.815 0.388,-0.8 0.387,-0.782C0.385,-0.764 0.385,-0.747 0.385,-0.731L0.372,-0.707L0.369,-0.704L0.178,-0.704L0.178,0.096L0.157,0.122L0.044,0.122ZM0.663,0.126L0.643,0.103L0.64,0.091L0.64,-0.704L0.447,-0.704C0.437,-0.714 0.431,-0.727 0.43,-0.743C0.429,-0.759 0.429,-0.775 0.429,-0.791L0.441,-0.829L0.444,-0.832L0.751,-0.832L0.78,-0.817L0.789,-0.8L0.789,0.093L0.774,0.116C0.757,0.122 0.739,0.125 0.721,0.125C0.702,0.126 0.683,0.126 0.663,0.126ZM0.39,0.091C0.38,0.089 0.371,0.085 0.363,0.079C0.355,0.072 0.347,0.065 0.339,0.058C0.331,0.048 0.326,0.037 0.323,0.025C0.32,0.013 0.319,0 0.321,-0.014L0.345,-0.062C0.354,-0.069 0.365,-0.076 0.377,-0.081C0.389,-0.085 0.402,-0.088 0.416,-0.088C0.428,-0.086 0.44,-0.083 0.452,-0.078C0.464,-0.073 0.474,-0.064 0.481,-0.053C0.487,-0.042 0.492,-0.032 0.497,-0.021C0.501,-0.01 0.502,0.002 0.5,0.016C0.497,0.026 0.494,0.036 0.489,0.046C0.484,0.056 0.477,0.064 0.467,0.072C0.457,0.081 0.445,0.086 0.431,0.089C0.417,0.092 0.403,0.093 0.39,0.091Z" style="fill:rgb(232,124,72);fill-opacity:0.6;fill-rule:nonzero;"/>
            </g>
            <g transform="matrix(239.952,0,0,239.952,1056.19,4071.68)">
                <path d="M0.356,0.124L0.339,0.104L0.336,0.019L0.348,-0.009L0.351,-0.012L0.643,-0.012L0.643,-0.704L0.44,-0.704C0.43,-0.718 0.425,-0.734 0.425,-0.752L0.425,-0.806L0.438,-0.832L0.44,-0.835L0.774,-0.835L0.792,-0.814L0.792,0.101L0.771,0.124L0.356,0.124ZM0.092,0.105C0.084,0.104 0.076,0.101 0.068,0.097C0.06,0.093 0.052,0.088 0.044,0.082C0.034,0.072 0.027,0.06 0.023,0.047C0.02,0.035 0.018,0.021 0.018,0.007C0.02,-0.003 0.022,-0.012 0.026,-0.021C0.03,-0.03 0.035,-0.038 0.041,-0.047C0.053,-0.057 0.066,-0.064 0.08,-0.069C0.094,-0.074 0.109,-0.075 0.125,-0.073C0.135,-0.071 0.144,-0.068 0.153,-0.063C0.162,-0.058 0.17,-0.05 0.178,-0.04C0.188,-0.03 0.194,-0.019 0.196,-0.005C0.198,0.009 0.198,0.023 0.196,0.037C0.194,0.047 0.19,0.056 0.184,0.063C0.178,0.071 0.171,0.079 0.163,0.088C0.153,0.096 0.142,0.101 0.13,0.104C0.118,0.107 0.105,0.107 0.092,0.105ZM0.049,-0.397L0.028,-0.409L0.025,-0.412L0.025,-0.814L0.046,-0.835L0.359,-0.835L0.378,-0.814L0.377,-0.741L0.364,-0.711L0.355,-0.705L0.179,-0.705L0.179,-0.412C0.161,-0.4 0.141,-0.396 0.119,-0.397C0.096,-0.399 0.073,-0.399 0.049,-0.397Z" style="fill:rgb(232,124,72);fill-opacity:0.6;fill-rule:nonzero;"/>
            </g>
            <g transform="matrix(239.952,0,0,239.952,1251.85,4071.68)">
                <path d="M0.045,0.126L0.024,0.103L0.024,-0.806L0.042,-0.826L0.063,-0.832L0.375,-0.832L0.381,-0.829C0.387,-0.815 0.39,-0.8 0.39,-0.782L0.39,-0.731L0.378,-0.707L0.375,-0.704L0.179,-0.704L0.179,0.093L0.164,0.116C0.146,0.122 0.127,0.125 0.106,0.125C0.086,0.126 0.065,0.126 0.045,0.126ZM0.458,0.122L0.428,0.11L0.416,0.084L0.416,-0.797L0.431,-0.826C0.449,-0.832 0.468,-0.834 0.489,-0.833C0.51,-0.833 0.53,-0.832 0.55,-0.832L0.571,-0.812L0.574,-0.803L0.574,-0.002L0.773,-0.002C0.785,0.012 0.791,0.028 0.79,0.044C0.789,0.06 0.788,0.077 0.788,0.096L0.779,0.119L0.773,0.122L0.458,0.122Z" style="fill:rgb(232,124,72);fill-opacity:0.6;fill-rule:nonzero;"/>
            </g>
            <g transform="matrix(239.952,0,0,239.952,273.533,4311.63)">
                <path d="M0.05,0.121L0.029,0.098L0.026,0.08L0.026,-0.803L0.05,-0.829L0.059,-0.832L0.757,-0.832L0.777,-0.82C0.785,-0.811 0.789,-0.798 0.789,-0.783L0.789,-0.739L0.774,-0.712L0.76,-0.703L0.176,-0.703L0.176,0.095L0.155,0.121L0.05,0.121ZM0.652,0.123L0.638,0.108L0.638,-0.287L0.236,-0.287L0.216,-0.312L0.217,-0.38L0.229,-0.409L0.243,-0.418L0.771,-0.418L0.788,-0.412L0.791,-0.4L0.791,0.103L0.782,0.117L0.773,0.123L0.652,0.123Z" style="fill:rgb(232,124,72);fill-opacity:0.6;fill-rule:nonzero;"/>
            </g>
            <g transform="matrix(239.952,0,0,239.952,469.198,4311.63)">
                <path d="M0.048,0.125L0.036,0.119L0.024,0.096L0.024,-0.808L0.045,-0.834L0.154,-0.834L0.175,-0.811L0.178,-0.796L0.178,0.087L0.163,0.119C0.146,0.125 0.127,0.127 0.107,0.126C0.088,0.125 0.068,0.125 0.048,0.125ZM0.656,0.114L0.642,0.103L0.642,-0.201L0.25,-0.201L0.229,-0.21C0.22,-0.222 0.215,-0.236 0.214,-0.253C0.214,-0.27 0.214,-0.286 0.214,-0.303L0.226,-0.326L0.234,-0.332L0.766,-0.332L0.792,-0.314L0.792,0.105L0.777,0.114L0.656,0.114ZM0.659,-0.397L0.642,-0.409L0.642,-0.704L0.233,-0.704L0.213,-0.729L0.214,-0.803L0.229,-0.829L0.237,-0.835L0.76,-0.835L0.789,-0.817L0.792,-0.814L0.792,-0.409L0.774,-0.397L0.659,-0.397ZM0.396,-0.442L0.354,-0.463C0.342,-0.475 0.334,-0.487 0.33,-0.501C0.326,-0.515 0.325,-0.532 0.327,-0.55L0.354,-0.597C0.363,-0.605 0.374,-0.611 0.385,-0.615C0.396,-0.619 0.408,-0.621 0.422,-0.621C0.434,-0.619 0.445,-0.615 0.455,-0.609C0.464,-0.603 0.475,-0.595 0.487,-0.585C0.493,-0.575 0.498,-0.565 0.501,-0.554C0.504,-0.543 0.506,-0.531 0.506,-0.52C0.504,-0.508 0.5,-0.497 0.495,-0.487C0.49,-0.477 0.481,-0.468 0.469,-0.46C0.462,-0.452 0.451,-0.447 0.437,-0.444C0.423,-0.441 0.409,-0.44 0.396,-0.442Z" style="fill:rgb(232,124,72);fill-opacity:0.6;fill-rule:nonzero;"/>
            </g>
            <g transform="matrix(239.952,0,0,239.952,664.862,4311.63)">
                <path d="M0.05,0.121L0.029,0.109L0.026,0.106L0.026,-0.323L0.044,-0.338L0.158,-0.338L0.176,-0.323L0.176,-0.012L0.764,-0.012L0.79,0.012L0.789,0.089L0.777,0.109L0.757,0.121L0.05,0.121ZM0.66,-0.284C0.652,-0.286 0.645,-0.289 0.637,-0.293C0.629,-0.298 0.622,-0.303 0.615,-0.309C0.605,-0.32 0.599,-0.333 0.595,-0.347C0.591,-0.361 0.59,-0.376 0.592,-0.392L0.618,-0.439C0.629,-0.447 0.64,-0.453 0.651,-0.457C0.663,-0.461 0.676,-0.463 0.69,-0.463C0.702,-0.461 0.713,-0.457 0.724,-0.451C0.735,-0.445 0.744,-0.438 0.753,-0.428C0.759,-0.417 0.763,-0.407 0.766,-0.396C0.769,-0.385 0.771,-0.374 0.771,-0.362C0.769,-0.35 0.765,-0.339 0.76,-0.329C0.755,-0.319 0.748,-0.311 0.737,-0.303C0.728,-0.294 0.716,-0.289 0.702,-0.286C0.688,-0.283 0.674,-0.282 0.66,-0.284ZM0.044,-0.38L0.026,-0.395L0.026,-0.82L0.05,-0.835L0.757,-0.835L0.777,-0.823C0.785,-0.813 0.789,-0.8 0.789,-0.784L0.789,-0.739L0.774,-0.715L0.76,-0.706L0.176,-0.706L0.176,-0.395L0.158,-0.38L0.044,-0.38Z" style="fill:rgb(232,124,72);fill-opacity:0.6;fill-rule:nonzero;"/>
            </g>
            <g transform="matrix(239.952,0,0,239.952,860.526,4311.63)">
                <path d="M0.05,0.121L0.029,0.098L0.026,0.08L0.026,-0.803L0.05,-0.829L0.059,-0.832L0.757,-0.832L0.777,-0.82C0.785,-0.811 0.789,-0.798 0.789,-0.783L0.789,-0.739L0.774,-0.712L0.76,-0.703L0.176,-0.703L0.176,0.095L0.155,0.121L0.05,0.121ZM0.652,0.123L0.638,0.108L0.638,-0.287L0.236,-0.287L0.216,-0.312L0.217,-0.38L0.229,-0.409L0.243,-0.418L0.771,-0.418L0.788,-0.412L0.791,-0.4L0.791,0.103L0.782,0.117L0.773,0.123L0.652,0.123Z" style="fill:rgb(232,124,72);fill-opacity:0.6;fill-rule:nonzero;"/>
            </g>
        </g>
    </g>
</svg>
