<?xml version="1.0" encoding="UTF-8" standalone="no"?>
<!DOCTYPE svg PUBLIC "-//W3C//DTD SVG 1.1//EN" "http://www.w3.org/Graphics/SVG/1.1/DTD/svg11.dtd">
<svg width="100%" height="100%" viewBox="0 0 560 33" version="1.1" xmlns="http://www.w3.org/2000/svg" xmlns:xlink="http://www.w3.org/1999/xlink" xml:space="preserve" xmlns:serif="http://www.serif.com/" style="fill-rule:evenodd;clip-rule:evenodd;stroke-linejoin:round;stroke-miterlimit:2;">
    <g transform="matrix(1,0,0,1,-5855.22,-4869.91)">
        <g>
            <g transform="matrix(0.337426,0,0,0.0634082,3870.69,4587.41)">
                <rect x="5881.4" y="4916.18" width="1659.62" height="15.771" style="fill:rgb(136,136,136);"/>
            </g>
            <g transform="matrix(0.337426,0,0,0.0634082,3870.69,4589.41)">
                <rect x="5881.4" y="4916.18" width="1659.62" height="15.771" style="fill:rgb(136,136,136);"/>
            </g>
            <g transform="matrix(1.74822,0,0,1.74822,-4377.38,-3671.45)">
                <g transform="matrix(2.49942e-18,0.0408187,-0.0408187,2.49942e-18,6027.13,4868.17)">
                    <path d="M668.888,4023.69L743.146,4066.57L743.146,4152.31L668.888,4195.18L594.631,4152.31L594.631,4066.57L668.888,4023.69Z" style="fill:rgb(96,96,96);"/>
                </g>
                <g transform="matrix(2.49942e-18,0.0408187,-0.0408187,2.49942e-18,6032.94,4864.71)">
                    <path d="M668.888,4023.69L743.146,4066.57L743.146,4152.31L668.888,4195.18L594.631,4152.31L594.631,4066.57L668.888,4023.69Z" style="fill:rgb(96,96,96);"/>
                </g>
                <g transform="matrix(2.49942e-18,0.0408187,-0.0408187,2.49942e-18,6027.13,4861.46)">
                    <path d="M668.888,4023.69L743.146,4066.57L743.146,4152.31L668.888,4195.18L594.631,4152.31L594.631,4066.57L668.888,4023.69Z" style="fill:rgb(96,96,96);"/>
                </g>
            </g>
            <g transform="matrix(0.649415,0,-0.2533,0.649415,3465.49,1724.1)">
                <g transform="matrix(19.2481,0,0,19.2481,6166.44,4886.44)">
                    <path d="M0.044,0.122L0.026,0.104L0.023,0.096L0.023,-0.806L0.041,-0.826L0.062,-0.832L0.373,-0.832L0.379,-0.829C0.385,-0.815 0.388,-0.8 0.387,-0.782C0.385,-0.764 0.385,-0.747 0.385,-0.731L0.372,-0.707L0.369,-0.704L0.178,-0.704L0.178,0.096L0.157,0.122L0.044,0.122ZM0.663,0.126L0.643,0.103L0.64,0.091L0.64,-0.704L0.447,-0.704C0.437,-0.714 0.431,-0.727 0.43,-0.743C0.429,-0.759 0.429,-0.775 0.429,-0.791L0.441,-0.829L0.444,-0.832L0.751,-0.832L0.78,-0.817L0.789,-0.8L0.789,0.093L0.774,0.116C0.757,0.122 0.739,0.125 0.721,0.125C0.702,0.126 0.683,0.126 0.663,0.126ZM0.39,0.091C0.38,0.089 0.371,0.085 0.363,0.079C0.355,0.072 0.347,0.065 0.339,0.058C0.331,0.048 0.326,0.037 0.323,0.025C0.32,0.013 0.319,0 0.321,-0.014L0.345,-0.062C0.354,-0.069 0.365,-0.076 0.377,-0.081C0.389,-0.085 0.402,-0.088 0.416,-0.088C0.428,-0.086 0.44,-0.083 0.452,-0.078C0.464,-0.073 0.474,-0.064 0.481,-0.053C0.487,-0.042 0.492,-0.032 0.497,-0.021C0.501,-0.01 0.502,0.002 0.5,0.016C0.497,0.026 0.494,0.036 0.489,0.046C0.484,0.056 0.477,0.064 0.467,0.072C0.457,0.081 0.445,0.086 0.431,0.089C0.417,0.092 0.403,0.093 0.39,0.091Z" style="fill:rgb(136,136,136);fill-opacity:0.25;fill-rule:nonzero;"/>
                </g>
                <g transform="matrix(19.2481,0,0,19.2481,6182.14,4886.44)">
                    <path d="M0.356,0.124L0.339,0.104L0.336,0.019L0.348,-0.009L0.351,-0.012L0.643,-0.012L0.643,-0.704L0.44,-0.704C0.43,-0.718 0.425,-0.734 0.425,-0.752L0.425,-0.806L0.438,-0.832L0.44,-0.835L0.774,-0.835L0.792,-0.814L0.792,0.101L0.771,0.124L0.356,0.124ZM0.092,0.105C0.084,0.104 0.076,0.101 0.068,0.097C0.06,0.093 0.052,0.088 0.044,0.082C0.034,0.072 0.027,0.06 0.023,0.047C0.02,0.035 0.018,0.021 0.018,0.007C0.02,-0.003 0.022,-0.012 0.026,-0.021C0.03,-0.03 0.035,-0.038 0.041,-0.047C0.053,-0.057 0.066,-0.064 0.08,-0.069C0.094,-0.074 0.109,-0.075 0.125,-0.073C0.135,-0.071 0.144,-0.068 0.153,-0.063C0.162,-0.058 0.17,-0.05 0.178,-0.04C0.188,-0.03 0.194,-0.019 0.196,-0.005C0.198,0.009 0.198,0.023 0.196,0.037C0.194,0.047 0.19,0.056 0.184,0.063C0.178,0.071 0.171,0.079 0.163,0.088C0.153,0.096 0.142,0.101 0.13,0.104C0.118,0.107 0.105,0.107 0.092,0.105ZM0.049,-0.397L0.028,-0.409L0.025,-0.412L0.025,-0.814L0.046,-0.835L0.359,-0.835L0.378,-0.814L0.377,-0.741L0.364,-0.711L0.355,-0.705L0.179,-0.705L0.179,-0.412C0.161,-0.4 0.141,-0.396 0.119,-0.397C0.096,-0.399 0.073,-0.399 0.049,-0.397Z" style="fill:rgb(136,136,136);fill-opacity:0.25;fill-rule:nonzero;"/>
                </g>
                <g transform="matrix(19.2481,0,0,19.2481,6197.83,4886.44)">
                    <path d="M0.048,0.125L0.036,0.119L0.024,0.096L0.024,-0.808L0.045,-0.834L0.154,-0.834L0.175,-0.811L0.178,-0.796L0.178,0.087L0.163,0.119C0.146,0.125 0.127,0.127 0.107,0.126C0.088,0.125 0.068,0.125 0.048,0.125ZM0.656,0.114L0.642,0.103L0.642,-0.201L0.25,-0.201L0.229,-0.21C0.22,-0.222 0.215,-0.236 0.214,-0.253C0.214,-0.27 0.214,-0.286 0.214,-0.303L0.226,-0.326L0.234,-0.332L0.766,-0.332L0.792,-0.314L0.792,0.105L0.777,0.114L0.656,0.114ZM0.659,-0.397L0.642,-0.409L0.642,-0.704L0.233,-0.704L0.213,-0.729L0.214,-0.803L0.229,-0.829L0.237,-0.835L0.76,-0.835L0.789,-0.817L0.792,-0.814L0.792,-0.409L0.774,-0.397L0.659,-0.397ZM0.396,-0.442L0.354,-0.463C0.342,-0.475 0.334,-0.487 0.33,-0.501C0.326,-0.515 0.325,-0.532 0.327,-0.55L0.354,-0.597C0.363,-0.605 0.374,-0.611 0.385,-0.615C0.396,-0.619 0.408,-0.621 0.422,-0.621C0.434,-0.619 0.445,-0.615 0.455,-0.609C0.464,-0.603 0.475,-0.595 0.487,-0.585C0.493,-0.575 0.498,-0.565 0.501,-0.554C0.504,-0.543 0.506,-0.531 0.506,-0.52C0.504,-0.508 0.5,-0.497 0.495,-0.487C0.49,-0.477 0.481,-0.468 0.469,-0.46C0.462,-0.452 0.451,-0.447 0.437,-0.444C0.423,-0.441 0.409,-0.44 0.396,-0.442Z" style="fill:rgb(136,136,136);fill-opacity:0.25;fill-rule:nonzero;"/>
                </g>
                <g transform="matrix(19.2481,0,0,19.2481,6213.53,4886.44)">
                    <path d="M0.05,0.121L0.029,0.109L0.026,0.106L0.026,-0.323L0.044,-0.338L0.158,-0.338L0.176,-0.323L0.176,-0.012L0.764,-0.012L0.79,0.012L0.789,0.089L0.777,0.109L0.757,0.121L0.05,0.121ZM0.66,-0.284C0.652,-0.286 0.645,-0.289 0.637,-0.293C0.629,-0.298 0.622,-0.303 0.615,-0.309C0.605,-0.32 0.599,-0.333 0.595,-0.347C0.591,-0.361 0.59,-0.376 0.592,-0.392L0.618,-0.439C0.629,-0.447 0.64,-0.453 0.651,-0.457C0.663,-0.461 0.676,-0.463 0.69,-0.463C0.702,-0.461 0.713,-0.457 0.724,-0.451C0.735,-0.445 0.744,-0.438 0.753,-0.428C0.759,-0.417 0.763,-0.407 0.766,-0.396C0.769,-0.385 0.771,-0.374 0.771,-0.362C0.769,-0.35 0.765,-0.339 0.76,-0.329C0.755,-0.319 0.748,-0.311 0.737,-0.303C0.728,-0.294 0.716,-0.289 0.702,-0.286C0.688,-0.283 0.674,-0.282 0.66,-0.284ZM0.044,-0.38L0.026,-0.395L0.026,-0.82L0.05,-0.835L0.757,-0.835L0.777,-0.823C0.785,-0.813 0.789,-0.8 0.789,-0.784L0.789,-0.739L0.774,-0.715L0.76,-0.706L0.176,-0.706L0.176,-0.395L0.158,-0.38L0.044,-0.38Z" style="fill:rgb(136,136,136);fill-opacity:0.25;fill-rule:nonzero;"/>
                </g>
                <g transform="matrix(19.2481,0,0,19.2481,6238.85,4886.44)">
                    <path d="M0.352,0.126L0.331,0.105L0.328,0.094L0.328,-0.797L0.343,-0.823C0.36,-0.829 0.38,-0.832 0.4,-0.833C0.421,-0.833 0.442,-0.833 0.462,-0.833L0.482,-0.81L0.485,-0.801L0.485,0.09L0.471,0.116C0.453,0.122 0.434,0.125 0.413,0.125C0.392,0.126 0.372,0.126 0.352,0.126ZM0.131,-0.27C0.12,-0.271 0.11,-0.275 0.101,-0.28C0.091,-0.285 0.082,-0.291 0.074,-0.3C0.066,-0.31 0.06,-0.321 0.056,-0.333C0.052,-0.346 0.051,-0.361 0.053,-0.377C0.055,-0.387 0.058,-0.396 0.063,-0.405C0.069,-0.414 0.076,-0.422 0.086,-0.431C0.096,-0.438 0.107,-0.444 0.12,-0.447C0.133,-0.45 0.146,-0.45 0.16,-0.448C0.17,-0.446 0.179,-0.443 0.187,-0.438C0.195,-0.433 0.203,-0.426 0.211,-0.418C0.219,-0.408 0.224,-0.397 0.227,-0.386C0.23,-0.374 0.231,-0.361 0.231,-0.347C0.229,-0.335 0.226,-0.324 0.22,-0.314C0.214,-0.305 0.206,-0.296 0.196,-0.287C0.186,-0.281 0.175,-0.277 0.165,-0.274C0.154,-0.271 0.143,-0.27 0.131,-0.27ZM0.654,-0.27C0.645,-0.271 0.636,-0.274 0.627,-0.278C0.619,-0.282 0.611,-0.287 0.604,-0.293C0.594,-0.305 0.586,-0.318 0.582,-0.331C0.577,-0.343 0.575,-0.358 0.577,-0.374C0.579,-0.384 0.583,-0.394 0.587,-0.403C0.592,-0.413 0.6,-0.422 0.609,-0.431C0.62,-0.438 0.632,-0.444 0.646,-0.447C0.659,-0.45 0.673,-0.45 0.688,-0.448C0.697,-0.444 0.706,-0.44 0.714,-0.435C0.722,-0.43 0.729,-0.424 0.737,-0.415C0.746,-0.405 0.751,-0.395 0.754,-0.383C0.757,-0.371 0.756,-0.35 0.75,-0.32L0.729,-0.293C0.719,-0.285 0.707,-0.279 0.694,-0.275C0.681,-0.271 0.668,-0.27 0.654,-0.27Z" style="fill:rgb(136,136,136);fill-opacity:0.25;fill-rule:nonzero;"/>
                </g>
                <g transform="matrix(19.2481,0,0,19.2481,6254.54,4886.44)">
                    <path d="M0.045,0.126L0.024,0.103L0.024,-0.806L0.042,-0.826L0.063,-0.832L0.375,-0.832L0.381,-0.829C0.387,-0.815 0.39,-0.8 0.39,-0.782L0.39,-0.731L0.378,-0.707L0.375,-0.704L0.179,-0.704L0.179,0.093L0.164,0.116C0.146,0.122 0.127,0.125 0.106,0.125C0.086,0.126 0.065,0.126 0.045,0.126ZM0.458,0.122L0.428,0.11L0.416,0.084L0.416,-0.797L0.431,-0.826C0.449,-0.832 0.468,-0.834 0.489,-0.833C0.51,-0.833 0.53,-0.832 0.55,-0.832L0.571,-0.812L0.574,-0.803L0.574,-0.002L0.773,-0.002C0.785,0.012 0.791,0.028 0.79,0.044C0.789,0.06 0.788,0.077 0.788,0.096L0.779,0.119L0.773,0.122L0.458,0.122Z" style="fill:rgb(136,136,136);fill-opacity:0.25;fill-rule:nonzero;"/>
                </g>
                <g transform="matrix(19.2481,0,0,19.2481,6270.24,4886.44)">
                    <path d="M0.047,0.125L0.026,0.104L0.026,-0.812L0.053,-0.832L0.762,-0.832L0.791,-0.806L0.79,-0.742L0.775,-0.712L0.761,-0.703L0.177,-0.703L0.177,0.096L0.162,0.119C0.145,0.125 0.126,0.127 0.106,0.126C0.087,0.125 0.067,0.125 0.047,0.125ZM0.664,-0.281C0.654,-0.285 0.644,-0.289 0.635,-0.293C0.626,-0.297 0.618,-0.304 0.61,-0.314C0.602,-0.324 0.596,-0.335 0.593,-0.348C0.59,-0.361 0.59,-0.374 0.592,-0.389C0.596,-0.398 0.6,-0.408 0.604,-0.417C0.608,-0.425 0.615,-0.434 0.625,-0.442C0.635,-0.45 0.646,-0.456 0.658,-0.458C0.67,-0.461 0.683,-0.462 0.696,-0.46L0.747,-0.434C0.757,-0.423 0.764,-0.412 0.768,-0.399C0.771,-0.386 0.772,-0.372 0.771,-0.355C0.769,-0.346 0.765,-0.336 0.76,-0.328C0.755,-0.319 0.749,-0.31 0.741,-0.302C0.731,-0.294 0.72,-0.288 0.706,-0.284C0.692,-0.28 0.678,-0.279 0.664,-0.281Z" style="fill:rgb(136,136,136);fill-opacity:0.25;fill-rule:nonzero;"/>
                </g>
                <g transform="matrix(19.2481,0,0,19.2481,6285.93,4886.44)">
                    <path d="M0.356,0.124L0.339,0.104L0.336,0.019L0.348,-0.009L0.351,-0.012L0.643,-0.012L0.643,-0.704L0.44,-0.704C0.43,-0.718 0.425,-0.734 0.425,-0.752L0.425,-0.806L0.438,-0.832L0.44,-0.835L0.774,-0.835L0.792,-0.814L0.792,0.101L0.771,0.124L0.356,0.124ZM0.092,0.105C0.084,0.104 0.076,0.101 0.068,0.097C0.06,0.093 0.052,0.088 0.044,0.082C0.034,0.072 0.027,0.06 0.023,0.047C0.02,0.035 0.018,0.021 0.018,0.007C0.02,-0.003 0.022,-0.012 0.026,-0.021C0.03,-0.03 0.035,-0.038 0.041,-0.047C0.053,-0.057 0.066,-0.064 0.08,-0.069C0.094,-0.074 0.109,-0.075 0.125,-0.073C0.135,-0.071 0.144,-0.068 0.153,-0.063C0.162,-0.058 0.17,-0.05 0.178,-0.04C0.188,-0.03 0.194,-0.019 0.196,-0.005C0.198,0.009 0.198,0.023 0.196,0.037C0.194,0.047 0.19,0.056 0.184,0.063C0.178,0.071 0.171,0.079 0.163,0.088C0.153,0.096 0.142,0.101 0.13,0.104C0.118,0.107 0.105,0.107 0.092,0.105ZM0.049,-0.397L0.028,-0.409L0.025,-0.412L0.025,-0.814L0.046,-0.835L0.359,-0.835L0.378,-0.814L0.377,-0.741L0.364,-0.711L0.355,-0.705L0.179,-0.705L0.179,-0.412C0.161,-0.4 0.141,-0.396 0.119,-0.397C0.096,-0.399 0.073,-0.399 0.049,-0.397Z" style="fill:rgb(136,136,136);fill-opacity:0.25;fill-rule:nonzero;"/>
                </g>
                <g transform="matrix(19.2481,0,0,19.2481,6301.63,4886.44)">
                    <path d="M0.048,0.125L0.036,0.119L0.024,0.096L0.024,-0.808L0.045,-0.834L0.154,-0.834L0.175,-0.811L0.178,-0.796L0.178,0.087L0.163,0.119C0.146,0.125 0.127,0.127 0.107,0.126C0.088,0.125 0.068,0.125 0.048,0.125ZM0.656,0.114L0.642,0.103L0.642,-0.201L0.25,-0.201L0.229,-0.21C0.22,-0.222 0.215,-0.236 0.214,-0.253C0.214,-0.27 0.214,-0.286 0.214,-0.303L0.226,-0.326L0.234,-0.332L0.766,-0.332L0.792,-0.314L0.792,0.105L0.777,0.114L0.656,0.114ZM0.659,-0.397L0.642,-0.409L0.642,-0.704L0.233,-0.704L0.213,-0.729L0.214,-0.803L0.229,-0.829L0.237,-0.835L0.76,-0.835L0.789,-0.817L0.792,-0.814L0.792,-0.409L0.774,-0.397L0.659,-0.397ZM0.396,-0.442L0.354,-0.463C0.342,-0.475 0.334,-0.487 0.33,-0.501C0.326,-0.515 0.325,-0.532 0.327,-0.55L0.354,-0.597C0.363,-0.605 0.374,-0.611 0.385,-0.615C0.396,-0.619 0.408,-0.621 0.422,-0.621C0.434,-0.619 0.445,-0.615 0.455,-0.609C0.464,-0.603 0.475,-0.595 0.487,-0.585C0.493,-0.575 0.498,-0.565 0.501,-0.554C0.504,-0.543 0.506,-0.531 0.506,-0.52C0.504,-0.508 0.5,-0.497 0.495,-0.487C0.49,-0.477 0.481,-0.468 0.469,-0.46C0.462,-0.452 0.451,-0.447 0.437,-0.444C0.423,-0.441 0.409,-0.44 0.396,-0.442Z" style="fill:rgb(136,136,136);fill-opacity:0.25;fill-rule:nonzero;"/>
                </g>
                <g transform="matrix(19.2481,0,0,19.2481,6317.32,4886.44)">
                    <path d="M0.044,0.122L0.026,0.104L0.023,0.096L0.023,-0.806L0.041,-0.826L0.062,-0.832L0.373,-0.832L0.379,-0.829C0.385,-0.815 0.388,-0.8 0.387,-0.782C0.385,-0.764 0.385,-0.747 0.385,-0.731L0.372,-0.707L0.369,-0.704L0.178,-0.704L0.178,0.096L0.157,0.122L0.044,0.122ZM0.663,0.126L0.643,0.103L0.64,0.091L0.64,-0.704L0.447,-0.704C0.437,-0.714 0.431,-0.727 0.43,-0.743C0.429,-0.759 0.429,-0.775 0.429,-0.791L0.441,-0.829L0.444,-0.832L0.751,-0.832L0.78,-0.817L0.789,-0.8L0.789,0.093L0.774,0.116C0.757,0.122 0.739,0.125 0.721,0.125C0.702,0.126 0.683,0.126 0.663,0.126ZM0.39,0.091C0.38,0.089 0.371,0.085 0.363,0.079C0.355,0.072 0.347,0.065 0.339,0.058C0.331,0.048 0.326,0.037 0.323,0.025C0.32,0.013 0.319,0 0.321,-0.014L0.345,-0.062C0.354,-0.069 0.365,-0.076 0.377,-0.081C0.389,-0.085 0.402,-0.088 0.416,-0.088C0.428,-0.086 0.44,-0.083 0.452,-0.078C0.464,-0.073 0.474,-0.064 0.481,-0.053C0.487,-0.042 0.492,-0.032 0.497,-0.021C0.501,-0.01 0.502,0.002 0.5,0.016C0.497,0.026 0.494,0.036 0.489,0.046C0.484,0.056 0.477,0.064 0.467,0.072C0.457,0.081 0.445,0.086 0.431,0.089C0.417,0.092 0.403,0.093 0.39,0.091Z" style="fill:rgb(136,136,136);fill-opacity:0.25;fill-rule:nonzero;"/>
                </g>
                <g transform="matrix(19.2481,0,0,19.2481,6333.02,4886.44)">
                    <path d="M0.05,0.121L0.029,0.098L0.026,0.08L0.026,-0.803L0.05,-0.829L0.059,-0.832L0.757,-0.832L0.777,-0.82C0.785,-0.811 0.789,-0.798 0.789,-0.783L0.789,-0.739L0.774,-0.712L0.76,-0.703L0.176,-0.703L0.176,0.095L0.155,0.121L0.05,0.121ZM0.652,0.123L0.638,0.108L0.638,-0.287L0.236,-0.287L0.216,-0.312L0.217,-0.38L0.229,-0.409L0.243,-0.418L0.771,-0.418L0.788,-0.412L0.791,-0.4L0.791,0.103L0.782,0.117L0.773,0.123L0.652,0.123Z" style="fill:rgb(136,136,136);fill-opacity:0.25;fill-rule:nonzero;"/>
                </g>
                <g transform="matrix(19.2481,0,0,19.2481,6348.71,4886.44)">
                    <path d="M0.247,0.126L0.235,0.12L0.224,0.097L0.224,-0.704L0.04,-0.704C0.028,-0.718 0.023,-0.734 0.024,-0.752C0.025,-0.77 0.025,-0.787 0.025,-0.806L0.034,-0.829L0.04,-0.832L0.34,-0.832L0.372,-0.814L0.382,-0.791L0.382,0.084L0.366,0.116C0.349,0.122 0.329,0.125 0.309,0.125C0.288,0.126 0.267,0.126 0.247,0.126ZM0.459,0.126L0.438,0.103L0.435,0.088L0.435,-0.791L0.447,-0.82L0.477,-0.832L0.776,-0.832L0.782,-0.829C0.788,-0.815 0.79,-0.8 0.789,-0.782C0.788,-0.764 0.787,-0.747 0.787,-0.731L0.775,-0.707L0.772,-0.704L0.593,-0.704L0.593,0.093L0.581,0.116C0.563,0.122 0.543,0.125 0.521,0.125C0.499,0.126 0.479,0.126 0.459,0.126Z" style="fill:rgb(136,136,136);fill-opacity:0.25;fill-rule:nonzero;"/>
                </g>
                <g transform="matrix(19.2481,0,0,19.2481,6364.41,4886.44)">
                    <path d="M0.352,0.126L0.331,0.105L0.328,0.094L0.328,-0.797L0.343,-0.823C0.36,-0.829 0.38,-0.832 0.4,-0.833C0.421,-0.833 0.442,-0.833 0.462,-0.833L0.482,-0.81L0.485,-0.801L0.485,0.09L0.471,0.116C0.453,0.122 0.434,0.125 0.413,0.125C0.392,0.126 0.372,0.126 0.352,0.126ZM0.131,-0.27C0.12,-0.271 0.11,-0.275 0.101,-0.28C0.091,-0.285 0.082,-0.291 0.074,-0.3C0.066,-0.31 0.06,-0.321 0.056,-0.333C0.052,-0.346 0.051,-0.361 0.053,-0.377C0.055,-0.387 0.058,-0.396 0.063,-0.405C0.069,-0.414 0.076,-0.422 0.086,-0.431C0.096,-0.438 0.107,-0.444 0.12,-0.447C0.133,-0.45 0.146,-0.45 0.16,-0.448C0.17,-0.446 0.179,-0.443 0.187,-0.438C0.195,-0.433 0.203,-0.426 0.211,-0.418C0.219,-0.408 0.224,-0.397 0.227,-0.386C0.23,-0.374 0.231,-0.361 0.231,-0.347C0.229,-0.335 0.226,-0.324 0.22,-0.314C0.214,-0.305 0.206,-0.296 0.196,-0.287C0.186,-0.281 0.175,-0.277 0.165,-0.274C0.154,-0.271 0.143,-0.27 0.131,-0.27ZM0.654,-0.27C0.645,-0.271 0.636,-0.274 0.627,-0.278C0.619,-0.282 0.611,-0.287 0.604,-0.293C0.594,-0.305 0.586,-0.318 0.582,-0.331C0.577,-0.343 0.575,-0.358 0.577,-0.374C0.579,-0.384 0.583,-0.394 0.587,-0.403C0.592,-0.413 0.6,-0.422 0.609,-0.431C0.62,-0.438 0.632,-0.444 0.646,-0.447C0.659,-0.45 0.673,-0.45 0.688,-0.448C0.697,-0.444 0.706,-0.44 0.714,-0.435C0.722,-0.43 0.729,-0.424 0.737,-0.415C0.746,-0.405 0.751,-0.395 0.754,-0.383C0.757,-0.371 0.756,-0.35 0.75,-0.32L0.729,-0.293C0.719,-0.285 0.707,-0.279 0.694,-0.275C0.681,-0.271 0.668,-0.27 0.654,-0.27Z" style="fill:rgb(136,136,136);fill-opacity:0.25;fill-rule:nonzero;"/>
                </g>
                <g transform="matrix(19.2481,0,0,19.2481,6380.11,4886.44)">
                    <path d="M0.356,0.124L0.339,0.104L0.336,0.019L0.348,-0.009L0.351,-0.012L0.643,-0.012L0.643,-0.704L0.44,-0.704C0.43,-0.718 0.425,-0.734 0.425,-0.752L0.425,-0.806L0.438,-0.832L0.44,-0.835L0.774,-0.835L0.792,-0.814L0.792,0.101L0.771,0.124L0.356,0.124ZM0.092,0.105C0.084,0.104 0.076,0.101 0.068,0.097C0.06,0.093 0.052,0.088 0.044,0.082C0.034,0.072 0.027,0.06 0.023,0.047C0.02,0.035 0.018,0.021 0.018,0.007C0.02,-0.003 0.022,-0.012 0.026,-0.021C0.03,-0.03 0.035,-0.038 0.041,-0.047C0.053,-0.057 0.066,-0.064 0.08,-0.069C0.094,-0.074 0.109,-0.075 0.125,-0.073C0.135,-0.071 0.144,-0.068 0.153,-0.063C0.162,-0.058 0.17,-0.05 0.178,-0.04C0.188,-0.03 0.194,-0.019 0.196,-0.005C0.198,0.009 0.198,0.023 0.196,0.037C0.194,0.047 0.19,0.056 0.184,0.063C0.178,0.071 0.171,0.079 0.163,0.088C0.153,0.096 0.142,0.101 0.13,0.104C0.118,0.107 0.105,0.107 0.092,0.105ZM0.049,-0.397L0.028,-0.409L0.025,-0.412L0.025,-0.814L0.046,-0.835L0.359,-0.835L0.378,-0.814L0.377,-0.741L0.364,-0.711L0.355,-0.705L0.179,-0.705L0.179,-0.412C0.161,-0.4 0.141,-0.396 0.119,-0.397C0.096,-0.399 0.073,-0.399 0.049,-0.397Z" style="fill:rgb(136,136,136);fill-opacity:0.25;fill-rule:nonzero;"/>
                </g>
                <g transform="matrix(19.2481,0,0,19.2481,6395.8,4886.44)">
                    <path d="M0.045,0.126L0.024,0.103L0.024,-0.806L0.042,-0.826L0.063,-0.832L0.375,-0.832L0.381,-0.829C0.387,-0.815 0.39,-0.8 0.39,-0.782L0.39,-0.731L0.378,-0.707L0.375,-0.704L0.179,-0.704L0.179,0.093L0.164,0.116C0.146,0.122 0.127,0.125 0.106,0.125C0.086,0.126 0.065,0.126 0.045,0.126ZM0.458,0.122L0.428,0.11L0.416,0.084L0.416,-0.797L0.431,-0.826C0.449,-0.832 0.468,-0.834 0.489,-0.833C0.51,-0.833 0.53,-0.832 0.55,-0.832L0.571,-0.812L0.574,-0.803L0.574,-0.002L0.773,-0.002C0.785,0.012 0.791,0.028 0.79,0.044C0.789,0.06 0.788,0.077 0.788,0.096L0.779,0.119L0.773,0.122L0.458,0.122Z" style="fill:rgb(136,136,136);fill-opacity:0.25;fill-rule:nonzero;"/>
                </g>
            </g>
            <g transform="matrix(0.869596,0,-1.38778e-17,0.869596,529.72,639.218)">
                <g transform="matrix(23.9575,0,0,23.9575,6166.44,4886.44)">
                    <path d="M0.044,0.126C0.038,0.124 0.034,0.122 0.031,0.119C0.028,0.116 0.025,0.111 0.023,0.105L0.023,-0.813L0.041,-0.833L0.158,-0.833L0.176,-0.815L0.179,-0.807L0.179,0.096L0.167,0.116C0.149,0.122 0.13,0.125 0.107,0.125C0.085,0.126 0.064,0.126 0.044,0.126ZM0.663,0.126L0.643,0.103L0.64,0.091L0.64,-0.794L0.654,-0.823C0.672,-0.829 0.69,-0.832 0.708,-0.833C0.726,-0.833 0.745,-0.833 0.766,-0.833L0.786,-0.813L0.789,-0.804L0.789,0.093L0.774,0.116C0.756,0.122 0.738,0.125 0.72,0.125C0.701,0.126 0.683,0.126 0.663,0.126ZM0.401,-0.267C0.389,-0.269 0.377,-0.272 0.367,-0.277C0.356,-0.282 0.347,-0.289 0.339,-0.3C0.331,-0.308 0.326,-0.317 0.322,-0.328C0.319,-0.338 0.317,-0.35 0.317,-0.362C0.319,-0.374 0.323,-0.385 0.328,-0.396C0.333,-0.407 0.34,-0.416 0.348,-0.425C0.359,-0.435 0.372,-0.441 0.386,-0.444C0.4,-0.447 0.415,-0.447 0.431,-0.445L0.473,-0.422C0.484,-0.41 0.492,-0.396 0.495,-0.381C0.498,-0.367 0.498,-0.351 0.496,-0.335L0.467,-0.287C0.457,-0.279 0.447,-0.274 0.436,-0.271C0.424,-0.268 0.413,-0.267 0.401,-0.267Z" style="fill:rgb(136,136,136);fill-opacity:0.15;fill-rule:nonzero;"/>
                </g>
                <g transform="matrix(23.9575,0,0,23.9575,6185.98,4886.44)">
                    <path d="M0.05,0.121L0.029,0.109L0.026,0.106L0.026,-0.323L0.044,-0.338L0.158,-0.338L0.176,-0.323L0.176,-0.012L0.764,-0.012L0.79,0.012L0.789,0.089L0.777,0.109L0.757,0.121L0.05,0.121ZM0.66,-0.284C0.652,-0.286 0.645,-0.289 0.637,-0.293C0.629,-0.298 0.622,-0.303 0.615,-0.309C0.605,-0.32 0.599,-0.333 0.595,-0.347C0.591,-0.361 0.59,-0.376 0.592,-0.392L0.618,-0.439C0.629,-0.447 0.64,-0.453 0.651,-0.457C0.663,-0.461 0.676,-0.463 0.69,-0.463C0.702,-0.461 0.713,-0.457 0.724,-0.451C0.735,-0.445 0.744,-0.438 0.753,-0.428C0.759,-0.417 0.763,-0.407 0.766,-0.396C0.769,-0.385 0.771,-0.374 0.771,-0.362C0.769,-0.35 0.765,-0.339 0.76,-0.329C0.755,-0.319 0.748,-0.311 0.737,-0.303C0.728,-0.294 0.716,-0.289 0.702,-0.286C0.688,-0.283 0.674,-0.282 0.66,-0.284ZM0.044,-0.38L0.026,-0.395L0.026,-0.82L0.05,-0.835L0.757,-0.835L0.777,-0.823C0.785,-0.813 0.789,-0.8 0.789,-0.784L0.789,-0.739L0.774,-0.715L0.76,-0.706L0.176,-0.706L0.176,-0.395L0.158,-0.38L0.044,-0.38Z" style="fill:rgb(136,136,136);fill-opacity:0.15;fill-rule:nonzero;"/>
                </g>
                <g transform="matrix(23.9575,0,0,23.9575,6205.51,4886.44)">
                    <path d="M0.05,0.121L0.029,0.098L0.026,0.08L0.026,-0.803L0.05,-0.829L0.059,-0.832L0.757,-0.832L0.777,-0.82C0.785,-0.811 0.789,-0.798 0.789,-0.783L0.789,-0.739L0.774,-0.712L0.76,-0.703L0.176,-0.703L0.176,0.095L0.155,0.121L0.05,0.121ZM0.652,0.123L0.638,0.108L0.638,-0.287L0.236,-0.287L0.216,-0.312L0.217,-0.38L0.229,-0.409L0.243,-0.418L0.771,-0.418L0.788,-0.412L0.791,-0.4L0.791,0.103L0.782,0.117L0.773,0.123L0.652,0.123Z" style="fill:rgb(136,136,136);fill-opacity:0.15;fill-rule:nonzero;"/>
                </g>
                <g transform="matrix(23.9575,0,0,23.9575,6225.05,4886.44)">
                    <path d="M0.044,0.125L0.026,0.107L0.026,-0.814L0.053,-0.832L0.756,-0.832L0.779,-0.817C0.787,-0.806 0.791,-0.792 0.79,-0.775C0.789,-0.759 0.788,-0.744 0.788,-0.73C0.784,-0.725 0.78,-0.72 0.776,-0.715C0.772,-0.711 0.768,-0.707 0.762,-0.703L0.178,-0.703L0.178,0.099L0.169,0.116C0.151,0.124 0.132,0.127 0.11,0.125C0.088,0.123 0.066,0.123 0.044,0.125ZM0.256,0.122L0.231,0.096L0.231,0.015L0.24,-0.004L0.253,-0.013L0.638,-0.013L0.638,-0.626L0.649,-0.646C0.67,-0.653 0.69,-0.656 0.711,-0.656L0.774,-0.656L0.792,-0.639L0.792,0.107L0.771,0.122L0.256,0.122ZM0.396,-0.466C0.386,-0.47 0.377,-0.475 0.369,-0.48C0.361,-0.485 0.354,-0.491 0.348,-0.499C0.34,-0.509 0.334,-0.52 0.332,-0.533C0.329,-0.546 0.328,-0.56 0.33,-0.573L0.354,-0.618C0.363,-0.626 0.374,-0.632 0.386,-0.637C0.398,-0.642 0.411,-0.645 0.425,-0.645C0.437,-0.643 0.449,-0.639 0.461,-0.634C0.473,-0.629 0.482,-0.621 0.49,-0.609C0.497,-0.599 0.502,-0.588 0.506,-0.578C0.51,-0.567 0.511,-0.555 0.509,-0.541C0.507,-0.531 0.503,-0.521 0.498,-0.511C0.493,-0.501 0.485,-0.492 0.476,-0.484C0.466,-0.474 0.454,-0.468 0.44,-0.467C0.426,-0.466 0.411,-0.466 0.396,-0.466Z" style="fill:rgb(136,136,136);fill-opacity:0.15;fill-rule:nonzero;"/>
                </g>
                <g transform="matrix(23.9575,0,0,23.9575,6244.58,4886.44)">
                    <path d="M0.352,0.126L0.331,0.105L0.328,0.094L0.328,-0.797L0.343,-0.823C0.36,-0.829 0.38,-0.832 0.4,-0.833C0.421,-0.833 0.442,-0.833 0.462,-0.833L0.482,-0.81L0.485,-0.801L0.485,0.09L0.471,0.116C0.453,0.122 0.434,0.125 0.413,0.125C0.392,0.126 0.372,0.126 0.352,0.126ZM0.131,-0.27C0.12,-0.271 0.11,-0.275 0.101,-0.28C0.091,-0.285 0.082,-0.291 0.074,-0.3C0.066,-0.31 0.06,-0.321 0.056,-0.333C0.052,-0.346 0.051,-0.361 0.053,-0.377C0.055,-0.387 0.058,-0.396 0.063,-0.405C0.069,-0.414 0.076,-0.422 0.086,-0.431C0.096,-0.438 0.107,-0.444 0.12,-0.447C0.133,-0.45 0.146,-0.45 0.16,-0.448C0.17,-0.446 0.179,-0.443 0.187,-0.438C0.195,-0.433 0.203,-0.426 0.211,-0.418C0.219,-0.408 0.224,-0.397 0.227,-0.386C0.23,-0.374 0.231,-0.361 0.231,-0.347C0.229,-0.335 0.226,-0.324 0.22,-0.314C0.214,-0.305 0.206,-0.296 0.196,-0.287C0.186,-0.281 0.175,-0.277 0.165,-0.274C0.154,-0.271 0.143,-0.27 0.131,-0.27ZM0.654,-0.27C0.645,-0.271 0.636,-0.274 0.627,-0.278C0.619,-0.282 0.611,-0.287 0.604,-0.293C0.594,-0.305 0.586,-0.318 0.582,-0.331C0.577,-0.343 0.575,-0.358 0.577,-0.374C0.579,-0.384 0.583,-0.394 0.587,-0.403C0.592,-0.413 0.6,-0.422 0.609,-0.431C0.62,-0.438 0.632,-0.444 0.646,-0.447C0.659,-0.45 0.673,-0.45 0.688,-0.448C0.697,-0.444 0.706,-0.44 0.714,-0.435C0.722,-0.43 0.729,-0.424 0.737,-0.415C0.746,-0.405 0.751,-0.395 0.754,-0.383C0.757,-0.371 0.756,-0.35 0.75,-0.32L0.729,-0.293C0.719,-0.285 0.707,-0.279 0.694,-0.275C0.681,-0.271 0.668,-0.27 0.654,-0.27Z" style="fill:rgb(136,136,136);fill-opacity:0.15;fill-rule:nonzero;"/>
                </g>
                <g transform="matrix(23.9575,0,0,23.9575,6264.12,4886.44)">
                    <path d="M0.045,0.126L0.024,0.103L0.024,-0.806L0.042,-0.826L0.063,-0.832L0.375,-0.832L0.381,-0.829C0.387,-0.815 0.39,-0.8 0.39,-0.782L0.39,-0.731L0.378,-0.707L0.375,-0.704L0.179,-0.704L0.179,0.093L0.164,0.116C0.146,0.122 0.127,0.125 0.106,0.125C0.086,0.126 0.065,0.126 0.045,0.126ZM0.458,0.122L0.428,0.11L0.416,0.084L0.416,-0.797L0.431,-0.826C0.449,-0.832 0.468,-0.834 0.489,-0.833C0.51,-0.833 0.53,-0.832 0.55,-0.832L0.571,-0.812L0.574,-0.803L0.574,-0.002L0.773,-0.002C0.785,0.012 0.791,0.028 0.79,0.044C0.789,0.06 0.788,0.077 0.788,0.096L0.779,0.119L0.773,0.122L0.458,0.122Z" style="fill:rgb(136,136,136);fill-opacity:0.15;fill-rule:nonzero;"/>
                </g>
                <g transform="matrix(23.9575,0,0,23.9575,6283.65,4886.44)">
                    <path d="M0.043,0.125L0.025,0.104L0.025,-0.814L0.052,-0.832L0.758,-0.832L0.781,-0.817C0.787,-0.806 0.79,-0.792 0.79,-0.777L0.79,-0.733L0.764,-0.703L0.176,-0.703L0.176,0.087L0.161,0.119C0.144,0.125 0.125,0.127 0.104,0.126C0.083,0.125 0.063,0.125 0.043,0.125ZM0.419,0.111C0.409,0.109 0.399,0.106 0.39,0.101C0.38,0.096 0.371,0.089 0.362,0.079C0.354,0.069 0.349,0.057 0.346,0.043C0.343,0.029 0.343,0.015 0.345,0.001C0.347,-0.009 0.351,-0.018 0.356,-0.025C0.362,-0.033 0.369,-0.041 0.378,-0.049C0.388,-0.057 0.399,-0.063 0.412,-0.066C0.424,-0.069 0.438,-0.069 0.452,-0.067C0.462,-0.065 0.471,-0.062 0.479,-0.057C0.486,-0.051 0.494,-0.045 0.503,-0.037C0.511,-0.027 0.516,-0.016 0.519,-0.004C0.522,0.008 0.523,0.021 0.523,0.034C0.521,0.046 0.518,0.057 0.512,0.067C0.506,0.077 0.498,0.086 0.487,0.094C0.478,0.1 0.467,0.104 0.457,0.108C0.446,0.112 0.433,0.113 0.419,0.111ZM0.666,0.125L0.643,0.113L0.64,0.11L0.64,-0.284L0.246,-0.284L0.229,-0.3C0.225,-0.312 0.223,-0.325 0.223,-0.34L0.223,-0.383L0.234,-0.406L0.25,-0.415L0.77,-0.415L0.787,-0.409L0.79,-0.406L0.79,0.11C0.772,0.122 0.752,0.127 0.729,0.125C0.707,0.123 0.686,0.123 0.666,0.125Z" style="fill:rgb(136,136,136);fill-opacity:0.15;fill-rule:nonzero;"/>
                </g>
                <g transform="matrix(23.9575,0,0,23.9575,6315.17,4886.44)">
                    <path d="M0.05,0.121L0.029,0.098L0.026,0.08L0.026,-0.803L0.05,-0.829L0.059,-0.832L0.757,-0.832L0.777,-0.82C0.785,-0.811 0.789,-0.798 0.789,-0.783L0.789,-0.739L0.774,-0.712L0.76,-0.703L0.176,-0.703L0.176,0.095L0.155,0.121L0.05,0.121ZM0.652,0.123L0.638,0.108L0.638,-0.287L0.236,-0.287L0.216,-0.312L0.217,-0.38L0.229,-0.409L0.243,-0.418L0.771,-0.418L0.788,-0.412L0.791,-0.4L0.791,0.103L0.782,0.117L0.773,0.123L0.652,0.123Z" style="fill:rgb(136,136,136);fill-opacity:0.15;fill-rule:nonzero;"/>
                </g>
                <g transform="matrix(23.9575,0,0,23.9575,6334.7,4886.44)">
                    <path d="M0.048,0.125L0.036,0.119L0.024,0.096L0.024,-0.808L0.045,-0.834L0.154,-0.834L0.175,-0.811L0.178,-0.796L0.178,0.087L0.163,0.119C0.146,0.125 0.127,0.127 0.107,0.126C0.088,0.125 0.068,0.125 0.048,0.125ZM0.656,0.114L0.642,0.103L0.642,-0.201L0.25,-0.201L0.229,-0.21C0.22,-0.222 0.215,-0.236 0.214,-0.253C0.214,-0.27 0.214,-0.286 0.214,-0.303L0.226,-0.326L0.234,-0.332L0.766,-0.332L0.792,-0.314L0.792,0.105L0.777,0.114L0.656,0.114ZM0.659,-0.397L0.642,-0.409L0.642,-0.704L0.233,-0.704L0.213,-0.729L0.214,-0.803L0.229,-0.829L0.237,-0.835L0.76,-0.835L0.789,-0.817L0.792,-0.814L0.792,-0.409L0.774,-0.397L0.659,-0.397ZM0.396,-0.442L0.354,-0.463C0.342,-0.475 0.334,-0.487 0.33,-0.501C0.326,-0.515 0.325,-0.532 0.327,-0.55L0.354,-0.597C0.363,-0.605 0.374,-0.611 0.385,-0.615C0.396,-0.619 0.408,-0.621 0.422,-0.621C0.434,-0.619 0.445,-0.615 0.455,-0.609C0.464,-0.603 0.475,-0.595 0.487,-0.585C0.493,-0.575 0.498,-0.565 0.501,-0.554C0.504,-0.543 0.506,-0.531 0.506,-0.52C0.504,-0.508 0.5,-0.497 0.495,-0.487C0.49,-0.477 0.481,-0.468 0.469,-0.46C0.462,-0.452 0.451,-0.447 0.437,-0.444C0.423,-0.441 0.409,-0.44 0.396,-0.442Z" style="fill:rgb(136,136,136);fill-opacity:0.15;fill-rule:nonzero;"/>
                </g>
                <g transform="matrix(23.9575,0,0,23.9575,6354.24,4886.44)">
                    <path d="M0.05,0.121L0.029,0.109L0.026,0.106L0.026,-0.323L0.044,-0.338L0.158,-0.338L0.176,-0.323L0.176,-0.012L0.764,-0.012L0.79,0.012L0.789,0.089L0.777,0.109L0.757,0.121L0.05,0.121ZM0.66,-0.284C0.652,-0.286 0.645,-0.289 0.637,-0.293C0.629,-0.298 0.622,-0.303 0.615,-0.309C0.605,-0.32 0.599,-0.333 0.595,-0.347C0.591,-0.361 0.59,-0.376 0.592,-0.392L0.618,-0.439C0.629,-0.447 0.64,-0.453 0.651,-0.457C0.663,-0.461 0.676,-0.463 0.69,-0.463C0.702,-0.461 0.713,-0.457 0.724,-0.451C0.735,-0.445 0.744,-0.438 0.753,-0.428C0.759,-0.417 0.763,-0.407 0.766,-0.396C0.769,-0.385 0.771,-0.374 0.771,-0.362C0.769,-0.35 0.765,-0.339 0.76,-0.329C0.755,-0.319 0.748,-0.311 0.737,-0.303C0.728,-0.294 0.716,-0.289 0.702,-0.286C0.688,-0.283 0.674,-0.282 0.66,-0.284ZM0.044,-0.38L0.026,-0.395L0.026,-0.82L0.05,-0.835L0.757,-0.835L0.777,-0.823C0.785,-0.813 0.789,-0.8 0.789,-0.784L0.789,-0.739L0.774,-0.715L0.76,-0.706L0.176,-0.706L0.176,-0.395L0.158,-0.38L0.044,-0.38Z" style="fill:rgb(136,136,136);fill-opacity:0.15;fill-rule:nonzero;"/>
                </g>
                <g transform="matrix(23.9575,0,0,23.9575,6373.78,4886.44)">
                    <path d="M0.05,0.121L0.029,0.098L0.026,0.08L0.026,-0.803L0.05,-0.829L0.059,-0.832L0.757,-0.832L0.777,-0.82C0.785,-0.811 0.789,-0.798 0.789,-0.783L0.789,-0.739L0.774,-0.712L0.76,-0.703L0.176,-0.703L0.176,0.095L0.155,0.121L0.05,0.121ZM0.652,0.123L0.638,0.108L0.638,-0.287L0.236,-0.287L0.216,-0.312L0.217,-0.38L0.229,-0.409L0.243,-0.418L0.771,-0.418L0.788,-0.412L0.791,-0.4L0.791,0.103L0.782,0.117L0.773,0.123L0.652,0.123Z" style="fill:rgb(136,136,136);fill-opacity:0.15;fill-rule:nonzero;"/>
                </g>
            </g>
        </g>
    </g>
</svg>
